<svg xmlns="http://www.w3.org/2000/svg" xmlns:xlink="http://www.w3.org/1999/xlink" viewBox="0 0 1123 887.68"><defs><style>.cls-1,.cls-2,.cls-3,.cls-4,.cls-6,.cls-9{fill:none;}.cls-2{stroke:#231815;stroke-width:1.44px;}.cls-13,.cls-14,.cls-3,.cls-5,.cls-6,.cls-9{stroke:#000;}.cls-3{stroke-miterlimit:10;}.cls-4{stroke:#c8c8c8;stroke-width:13.28px;}.cls-5{fill:#c8c8c8;stroke-width:1.76px;stroke-dasharray:0 19.32;}.cls-13,.cls-14,.cls-6,.cls-9{stroke-width:1.42px;}.cls-7{fill:#2f94a9;}.cls-8{fill:url(#_10_lpi_20_);}.cls-9{stroke-linecap:square;}.cls-13,.cls-14,.cls-9{stroke-linejoin:round;}.cls-10,.cls-14{fill:#fff;}.cls-11{fill:url(#_10_lpi_20_7);}.cls-12{fill:#e9e9e9;}.cls-13,.cls-14{stroke-linecap:round;}.cls-15{fill:#7d7d7d;}</style><pattern id="_10_lpi_20_" data-name="10 lpi 20%" width="72" height="72" patternTransform="translate(4.15 89.07) rotate(-45) scale(0.5)" patternUnits="userSpaceOnUse" viewBox="0 0 72 72"><rect class="cls-1" width="72" height="72"/><line class="cls-2" x1="71.75" y1="68.4" x2="144.25" y2="68.4"/><line class="cls-2" x1="71.75" y1="54" x2="144.25" y2="54"/><line class="cls-2" x1="71.75" y1="39.6" x2="144.25" y2="39.6"/><line class="cls-2" x1="71.75" y1="25.2" x2="144.25" y2="25.2"/><line class="cls-2" x1="71.75" y1="10.8" x2="144.25" y2="10.8"/><line class="cls-2" x1="71.75" y1="61.2" x2="144.25" y2="61.2"/><line class="cls-2" x1="71.75" y1="46.8" x2="144.25" y2="46.8"/><line class="cls-2" x1="71.75" y1="32.4" x2="144.25" y2="32.4"/><line class="cls-2" x1="71.75" y1="18" x2="144.25" y2="18"/><line class="cls-2" x1="71.75" y1="3.6" x2="144.25" y2="3.6"/><line class="cls-2" x1="-0.25" y1="68.4" x2="72.25" y2="68.4"/><line class="cls-2" x1="-0.25" y1="54" x2="72.25" y2="54"/><line class="cls-2" x1="-0.25" y1="39.6" x2="72.25" y2="39.6"/><line class="cls-2" x1="-0.25" y1="25.2" x2="72.25" y2="25.2"/><line class="cls-2" x1="-0.25" y1="10.8" x2="72.25" y2="10.8"/><line class="cls-2" x1="-0.25" y1="61.2" x2="72.25" y2="61.2"/><line class="cls-2" x1="-0.25" y1="46.8" x2="72.25" y2="46.8"/><line class="cls-2" x1="-0.25" y1="32.4" x2="72.25" y2="32.4"/><line class="cls-2" x1="-0.25" y1="18" x2="72.25" y2="18"/><line class="cls-2" x1="-0.25" y1="3.6" x2="72.25" y2="3.6"/><line class="cls-2" x1="-72.25" y1="68.4" x2="0.25" y2="68.4"/><line class="cls-2" x1="-72.25" y1="54" x2="0.25" y2="54"/><line class="cls-2" x1="-72.25" y1="39.6" x2="0.25" y2="39.6"/><line class="cls-2" x1="-72.25" y1="25.2" x2="0.25" y2="25.2"/><line class="cls-2" x1="-72.25" y1="10.8" x2="0.25" y2="10.8"/><line class="cls-2" x1="-72.25" y1="61.2" x2="0.25" y2="61.2"/><line class="cls-2" x1="-72.25" y1="46.8" x2="0.25" y2="46.8"/><line class="cls-2" x1="-72.25" y1="32.4" x2="0.25" y2="32.4"/><line class="cls-2" x1="-72.25" y1="18" x2="0.25" y2="18"/><line class="cls-2" x1="-72.25" y1="3.6" x2="0.25" y2="3.6"/></pattern><pattern id="_10_lpi_20_7" data-name="10 lpi 20%" width="72" height="72" patternTransform="translate(22.38 102.96) rotate(-45) scale(0.74)" patternUnits="userSpaceOnUse" viewBox="0 0 72 72"><rect class="cls-1" width="72" height="72"/><line class="cls-2" x1="71.75" y1="68.4" x2="144.25" y2="68.4"/><line class="cls-2" x1="71.75" y1="54" x2="144.25" y2="54"/><line class="cls-2" x1="71.75" y1="39.6" x2="144.25" y2="39.6"/><line class="cls-2" x1="71.75" y1="25.2" x2="144.25" y2="25.2"/><line class="cls-2" x1="71.75" y1="10.8" x2="144.25" y2="10.8"/><line class="cls-2" x1="71.75" y1="61.2" x2="144.25" y2="61.2"/><line class="cls-2" x1="71.75" y1="46.8" x2="144.25" y2="46.8"/><line class="cls-2" x1="71.75" y1="32.4" x2="144.25" y2="32.4"/><line class="cls-2" x1="71.75" y1="18" x2="144.25" y2="18"/><line class="cls-2" x1="71.75" y1="3.6" x2="144.25" y2="3.6"/><line class="cls-2" x1="-0.25" y1="68.4" x2="72.25" y2="68.4"/><line class="cls-2" x1="-0.25" y1="54" x2="72.25" y2="54"/><line class="cls-2" x1="-0.25" y1="39.6" x2="72.25" y2="39.6"/><line class="cls-2" x1="-0.25" y1="25.2" x2="72.25" y2="25.2"/><line class="cls-2" x1="-0.25" y1="10.8" x2="72.25" y2="10.8"/><line class="cls-2" x1="-0.25" y1="61.2" x2="72.25" y2="61.2"/><line class="cls-2" x1="-0.25" y1="46.8" x2="72.25" y2="46.8"/><line class="cls-2" x1="-0.25" y1="32.4" x2="72.25" y2="32.4"/><line class="cls-2" x1="-0.25" y1="18" x2="72.25" y2="18"/><line class="cls-2" x1="-0.25" y1="3.6" x2="72.25" y2="3.6"/><line class="cls-2" x1="-72.25" y1="68.4" x2="0.25" y2="68.4"/><line class="cls-2" x1="-72.25" y1="54" x2="0.25" y2="54"/><line class="cls-2" x1="-72.25" y1="39.6" x2="0.25" y2="39.6"/><line class="cls-2" x1="-72.25" y1="25.2" x2="0.25" y2="25.2"/><line class="cls-2" x1="-72.25" y1="10.8" x2="0.25" y2="10.8"/><line class="cls-2" x1="-72.25" y1="61.2" x2="0.25" y2="61.2"/><line class="cls-2" x1="-72.25" y1="46.8" x2="0.25" y2="46.8"/><line class="cls-2" x1="-72.25" y1="32.4" x2="0.25" y2="32.4"/><line class="cls-2" x1="-72.25" y1="18" x2="0.25" y2="18"/><line class="cls-2" x1="-72.25" y1="3.6" x2="0.25" y2="3.6"/></pattern></defs><title>KUISMap</title><g id="レイヤー_5" data-name="レイヤー 5"><line class="cls-3" x1="42.79" y1="671.25" x2="1123" y2="671.25"/><line class="cls-3" y1="746.67" x2="1123" y2="746.67"/><line class="cls-3" x1="42.79" y1="671.25" x2="42.79" y2="101.52"/></g><g id="svg869"><path id="path880" class="cls-4" d="M99,674.29,210.2,513.74V250.31l710.51-1.74,149.55-.24"/><path id="path882" class="cls-4" d="M1070.73,216.11v-4.43h0V478.62H982.92v35.12H807.31"/><path id="path884" class="cls-4" d="M807.31,250.31l-1.64,295.34h0"/><path id="path886" class="cls-4" d="M833.65,548.87H693.15"/><path id="path888" class="cls-4" d="M768.85,553.83V637"/><path id="path892" class="cls-4" d="M210.2,513.74H719.5"/><path id="path894" class="cls-4" d="M549.26,251.06V388.81"/><path id="path896" class="cls-4" d="M210.2,390.81H635.1"/><path id="path898" class="cls-1" d="M213.76,364.26l-49.15-.52-80.42-.85"/><path id="path900" class="cls-4" d="M947.8,188.85v61.46"/><path id="path7380" class="cls-4" d="M719.5,496.18v52.69"/><path id="path7382" class="cls-4" d="M210.2,362.71H69.71"/><path id="path7450" class="cls-5" d="M1064.09,212.05v-5.27l14.05,5.27Z"/><path id="path905" class="cls-6" d="M219,543.6v87.81h87.81V649H394.6V631.41H517.54V613.84h87.8V578.72h87.81V526H605.34V543.6h-87.8v17.56H394.6V543.6Z"/><path id="path907" class="cls-6" d="M809.06,561.16v43.9H835.4v26.35h245.87V605.06c-5.9-33.78-17.53-63.79-70.25-70.24L833.65,531.3v29.86Z"/><path id="path909" class="cls-6" d="M680.86,425.93v70.25h70.25V425.93Z"/><path id="path911" class="cls-6" d="M600.08,320.56v52.69H635.2v35.12H793.26V320.56Z"/><path id="path913" class="cls-6" d="M930.24,267.88h122.93V425.93h-52.68V373.25C962.24,356.36,933,314.84,930.24,267.88Z"/><path id="path915" class="cls-6" d="M842.43,127.38H1088.3v87.81C975.75,170,906.92,186.13,842.43,232.75Z"/><path id="path917" class="cls-6" d="M350.7,136.16v79H658v-79Z"/><path id="path919" class="cls-6" d="M504.32,136.16,504,214.88"/><path id="path921" class="cls-6" d="M658,153.72H631.69v43.91H658"/><path id="path923" class="cls-6" d="M350.7,162.5h17.56v26.35H350.7"/><path id="path949" class="cls-6" d="M71.46,118.6V224h43.91v8.78h43.9V224H194.4V118.6Z"/><g id="g959"><path id="path927" class="cls-6" d="M227.76,136.16H333.14"/><path id="path929" class="cls-6" d="M333.14,144.94H227.76"/><path id="path931" class="cls-6" d="M280.45,127.38v26.34"/><path id="path933" class="cls-6" d="M306.79,136.16v8.78"/><path id="path935" class="cls-6" d="M254.11,136.16v8.78"/><path id="path951" class="cls-6" d="M227.76,127.38v26.34H333.14V127.38H227.76Z"/></g><g id="g987"><path id="path975" class="cls-6" d="M227.76,171.29H333.14"/><path id="path977" class="cls-6" d="M333.14,180.07H227.76"/><path id="path979" class="cls-6" d="M280.45,162.5v26.35"/><path id="path981" class="cls-6" d="M306.79,171.29v8.78"/><path id="path983" class="cls-6" d="M254.11,171.29v8.78"/><path id="path985" class="cls-6" d="M227.76,162.5v26.35H333.14V162.5H227.76Z"/></g><g id="g1001"><path id="path989" class="cls-6" d="M227.76,206.41H333.14"/><path id="path991" class="cls-6" d="M333.14,215.19H227.76"/><path id="path993" class="cls-6" d="M280.45,197.63V224"/><path id="path995" class="cls-6" d="M306.79,206.41v8.78"/><path id="path997" class="cls-6" d="M254.11,206.41v8.78"/><path id="path999" class="cls-6" d="M227.76,197.63V224H333.14V197.63H227.76Z"/></g><path id="path1003" class="cls-6" d="M658,162.5H640.47v26.35H658"/><path id="path1005" class="cls-6" d="M350.7,153.72H377v43.91H350.7"/><g id="path2745"><polygon class="cls-7" points="110.16 304.36 110.16 261.06 147.66 261.06 147.66 254.57 171.35 254.57 171.35 347.64 104.24 347.64 104.21 332.01 94.11 332.01 94.11 315.18 104.21 315.18 104.24 304.35 110.16 304.36"/><polygon class="cls-8" points="110.16 304.36 110.16 261.06 147.66 261.06 147.66 254.57 171.35 254.57 171.35 347.64 104.24 347.64 104.21 332.01 94.11 332.01 94.11 315.18 104.21 315.18 104.24 304.35 110.16 304.36"/><polygon class="cls-6" points="110.16 304.36 110.16 261.06 147.66 261.06 147.66 254.57 171.35 254.57 171.35 347.64 104.24 347.64 104.21 332.01 94.11 332.01 94.11 315.18 104.21 315.18 104.24 304.35 110.16 304.36"/></g><g id="path1873"><polygon class="cls-7" points="194.39 438.97 179.18 438.97 179.18 390.81 87.93 390.81 87.93 542.89 158.91 542.89 158.91 515.74 179.18 515.74 179.18 461.78 194.39 461.78 194.39 438.97"/><polygon class="cls-8" points="194.39 438.97 179.18 438.97 179.18 390.81 87.93 390.81 87.93 542.89 158.91 542.89 158.91 515.74 179.18 515.74 179.18 461.78 194.39 461.78 194.39 438.97"/><polygon class="cls-6" points="194.39 438.97 179.18 438.97 179.18 390.81 87.93 390.81 87.93 542.89 158.91 542.89 158.91 515.74 179.18 515.74 179.18 461.78 194.39 461.78 194.39 438.97"/></g><g id="path8014"><path class="cls-7" d="M223.93,273.49l11.24-11.25h94.45V296c-3.37,41.13-25.23,66.21-72,69.72H223.93Z"/><path class="cls-8" d="M223.93,273.49l11.24-11.25h94.45V296c-3.37,41.13-25.23,66.21-72,69.72H223.93Z"/><path class="cls-9" d="M223.93,273.49l11.24-11.25h94.45V296c-3.37,41.13-25.23,66.21-72,69.72H223.93Z"/></g><ellipse id="path1031" class="cls-6" cx="503.81" cy="174.37" rx="16.58" ry="15.96"/><ellipse id="circle7440" cx="698.33" cy="638.22" rx="30.08" ry="30.16"/><path d="M796,675.1H740.06a4.14,4.14,0,0,0-3.92,2.85l-4.07,12.5a11.73,11.73,0,0,0-.58,3.73V712h9.3a2.83,2.83,0,0,1,0-.29,8.95,8.95,0,0,1,17.89,0,2.83,2.83,0,0,1,0,.29h22.09c0-.1,0-.19,0-.29a8.95,8.95,0,0,1,17.89,0c0,.1,0,.19,0,.29h7.9V685.61A10.52,10.52,0,0,0,796,675.1ZM745.9,699.57a1.06,1.06,0,0,1-1.06,1.06h-5.91a1.07,1.07,0,0,1-1.07-1.06v-5.46a6.52,6.52,0,0,1,.33-2.05l3.46-10.65a1.06,1.06,0,0,1,1-.74h2.18a1.06,1.06,0,0,1,1.06,1.06Zm18.87-8.23a.53.53,0,0,1-.53.53H752a.53.53,0,0,1-.53-.53V681.21a.54.54,0,0,1,.53-.54h12.25a.54.54,0,0,1,.53.54Zm18.24,0a.53.53,0,0,1-.53.53h-12.7a.53.53,0,0,1-.53-.53V681.21a.54.54,0,0,1,.53-.54h12.7a.54.54,0,0,1,.53.54Zm17.1-.53a1.07,1.07,0,0,1-1.07,1.06h-9.8a1.06,1.06,0,0,1-1.06-1.06v-9.08a1.06,1.06,0,0,1,1.06-1.06H795a5.13,5.13,0,0,1,5.11,5.11Z"/><path d="M749.72,705.07a6.6,6.6,0,1,0,6.6,6.6A6.6,6.6,0,0,0,749.72,705.07Zm0,9.36a2.76,2.76,0,1,1,2.76-2.76A2.76,2.76,0,0,1,749.72,714.43Z"/><path d="M789.66,705.07a6.6,6.6,0,1,0,6.6,6.6A6.6,6.6,0,0,0,789.66,705.07Zm0,9.36a2.76,2.76,0,1,1,2.76-2.76A2.76,2.76,0,0,1,789.66,714.43Z"/><rect x="732.74" y="641.05" width="70.98" height="25.74"/><path class="cls-10" d="M744.83,647.65l2,.42c-.13.45-.29,1.13-.38,1.53a37.87,37.87,0,0,1-1.58,5.54,26.42,26.42,0,0,1-2.65,5l-2-.83a23.84,23.84,0,0,0,2.79-4.93A26.75,26.75,0,0,0,744.83,647.65Zm4.54.4,1.85-.61c.72,1.35,1.93,4,2.65,5.78s1.64,4.53,2.12,6.23l-2,.66a62,62,0,0,0-2-6.26A51.15,51.15,0,0,0,749.37,648.05Zm5.34.14-1.17.51a21.64,21.64,0,0,0-1.44-2.49l1.17-.48A21.65,21.65,0,0,1,754.71,648.19Zm2.07-.79-1.15.52a19.74,19.74,0,0,0-1.47-2.48l1.15-.49A25.18,25.18,0,0,1,756.78,647.4Z"/><path class="cls-10" d="M772.51,647.78a7.56,7.56,0,0,0-.52.93,24.57,24.57,0,0,1-3,5.14,48.07,48.07,0,0,1,5.15,5.27l-1.6,1.41a38.75,38.75,0,0,0-4.76-5.26,23.07,23.07,0,0,1-6.93,5.17l-1.46-1.52a20.08,20.08,0,0,0,7.4-5.27,14.93,14.93,0,0,0,2.87-4.75H763.1c-.7,0-1.68.09-2,.1v-2c.36,0,1.4.12,2,.12h6.68a5.79,5.79,0,0,0,1.56-.17Z"/><path class="cls-10" d="M782.9,645.33a29.75,29.75,0,0,1-1.78,3.8v12.15h-1.59v-9.67a20.17,20.17,0,0,1-1.55,1.88,12.89,12.89,0,0,0-.92-1.7,19.81,19.81,0,0,0,4.27-6.93Zm11.2,7.94v3.22h-1.55v-1.9h-8.91v1.94h-1.48v-3.26Zm-6.84-6.82v-1.61h1.67v1.61h5v1.44H782.52v-1.44Zm-3.48,5.94v-3.66h8.82v3.66Zm.61,3.2H792v1.35h-3v2.67c0,.83-.14,1.26-.81,1.49a9.46,9.46,0,0,1-2.94.24,5.78,5.78,0,0,0-.48-1.53c.95.05,1.93.05,2.21,0s.35-.07.35-.29v-2.61h-2.87Zm1-4.34h5.56v-1.38h-5.56Z"/><path class="cls-10" d="M688.16,639.26v7.19h-2.11v-1h-9.41v1h-2.06v-7.2h2.06v4.23h3.55v-5.13h-4.93v-6.17h2v4.19h2.92v-5.62h2.07v5.62h3.1v-4.19h2.12v6.17h-5.22v5.13h3.79v-4.23Z"/><path class="cls-10" d="M699.64,631.54c0,3.21.46,9.42,6.71,13.11a11,11,0,0,0-1.63,1.76,14.35,14.35,0,0,1-6.26-8.38,14.68,14.68,0,0,1-6.27,8.4,15.9,15.9,0,0,0-1.85-1.65c3.54-1.78,5.56-5.06,6.49-9.53l1,.18c-.12-.64-.19-1.26-.24-1.83h-3.87v-2.06Z"/><path class="cls-10" d="M722,632.25v13.84H719.8v-1.34h-9v1.37h-2.12V632.25Zm-2.23,10.41v-8.35h-9v8.35Z"/><ellipse id="circle7440-2" data-name="circle7440" cx="350.7" cy="680.67" rx="30.08" ry="30.16"/><path class="cls-10" d="M340.53,681.71v7.19h-2.11v-1H329v1H327v-7.21H329v4.23h3.55v-5.13h-4.93v-6.17h2v4.2h2.93v-5.63h2.07v5.63h3.1v-4.2h2.12v6.17h-5.22v5.13h3.79v-4.23Z"/><path class="cls-10" d="M352,674c0,3.21.45,9.42,6.71,13.11a11,11,0,0,0-1.63,1.76,14.35,14.35,0,0,1-6.26-8.38,14.68,14.68,0,0,1-6.27,8.4,15.9,15.9,0,0,0-1.85-1.65c3.53-1.78,5.56-5.06,6.49-9.53l1,.18a18.43,18.43,0,0,1-.24-1.83h-3.87V674Z"/><path class="cls-10" d="M374.39,674.7v13.84h-2.22V687.2h-9v1.38H361V674.7Zm-2.22,10.41v-8.35h-9v8.35Z"/><ellipse id="circle7440-3" data-name="circle7440" cx="42.79" cy="362.53" rx="30.08" ry="30.16"/><path class="cls-10" d="M32.62,363.56v7.19h-2.1v-1H21.1v1H19v-7.21H21.1v4.24h3.55v-5.14H19.72v-6.17h2v4.2h2.92v-5.63h2.08v5.63h3.09v-4.2h2.12v6.17H26.73v5.14h3.79v-4.24Z"/><path class="cls-10" d="M44.1,355.85c0,3.21.46,9.41,6.71,13.1a11.12,11.12,0,0,0-1.63,1.77,14.35,14.35,0,0,1-6.25-8.38,14.74,14.74,0,0,1-6.28,8.4,15,15,0,0,0-1.85-1.65c3.54-1.79,5.56-5.07,6.49-9.54l1,.19c-.12-.65-.19-1.26-.24-1.84H38.22v-2Z"/><path class="cls-10" d="M66.49,356.56V370.4H64.26v-1.35h-9v1.38H53.13V356.56ZM64.26,367v-8.34h-9V367Z"/><ellipse id="circle7440-4" data-name="circle7440" cx="99.33" cy="673.37" rx="30.08" ry="30.16"/><ellipse id="circle7440-5" data-name="circle7440" class="cls-3" cx="99.33" cy="673.37" rx="33.96" ry="34.06"/><path class="cls-10" d="M98.56,679v2H83.11v-2H85.2v-7.54h2.11V679h3V668.81H83.7v-2H98.1v2H92.41v3.74h4.81v2H92.41V679Z"/><path class="cls-10" d="M107.2,673h-4.47v8.65h-2V666.42h6.48Zm-4.47-4.91v.88h2.58v-.88Zm2.58,3.29v-1h-2.58v1Zm9.72,7.82c0,1.16-.24,1.75-1,2.06a9.31,9.31,0,0,1-3.51.37,7.06,7.06,0,0,0-.71-2.07c1.07.07,2.33.05,2.69.05s.47-.12.47-.44V673h-4.6v-6.59H115Zm-4.72-11.11v.88H113v-.88Zm2.68,3.33v-1h-2.68v1Z"/></g><g id="レイヤー_2" data-name="レイヤー 2"><path d="M949.34,151h-6.23v-1.75h8.54v1.26c-3.12,3.89-3.6,6.81-3.82,12h-2.12C945.94,157.66,946.79,154.56,949.34,151Z"/><path d="M959,156.2c-.14.45-.28.9-.45,1.35h8.84a5.51,5.51,0,0,1-.09.74c-.41,3-.84,4.45-1.51,5a2.51,2.51,0,0,1-1.71.58c-.63,0-1.82,0-3.06,0a3.18,3.18,0,0,0-.59-1.6c1.24.11,2.55.13,3.06.13a1.49,1.49,0,0,0,.88-.17c.41-.32.76-1.27,1-3.15H958c-.14.4-.28.78-.41,1.1l-1.82-.27c.43-1,.94-2.39,1.37-3.71h-3.67v-1.51h16v1.51Zm8.36-2.72H955.84v-5.4h11.49Zm-1.73-3.92h-8.12V152h8.12Z"/><path d="M981.31,156.82v1.35h5.86v5.63h-1.55v-.75h-4.31v.86H979.8V152.46h-1.06v-1.93l-1,1.17a14.2,14.2,0,0,0-2.37-2.86,16.87,16.87,0,0,1-2.52,3.33h1.91v-1.6h1.42v1.6h1.92v6h-4.19v3l2.41-.57c-.27-.51-.57-1-.86-1.41l1.31-.59a16.07,16.07,0,0,1,2.18,4.09l-1.44.66a10,10,0,0,0-.56-1.51l-5.2,1.46-.49-1.55,1.17-.25v-8.91c-.14.14-.3.27-.46.41a4.23,4.23,0,0,0-1.07-1.08,11.92,11.92,0,0,0,3.44-4.5h1.57a17.51,17.51,0,0,1,2.88,3v-1.1h3.51v-1.93h1.62v1.93h3.71v3.15h-1.17v4.36Zm-7.45-3.43v1.17h2.7v-1.17Zm2.7,3.52V155.7h-2.7v1.21Zm3.67-6.23v1.54H986v-1.54Zm4.65,2.89h-3.57v1.89h3.57Zm-3.57,6v2.07h4.31v-2.07Z"/><path d="M994,317.9a2.85,2.85,0,0,0-2.07-1c-1.69,0-3.1,1.27-3.19,5.06a4,4,0,0,1,2.88-1.54c2.24,0,3.73,1.37,3.73,4.18a4,4,0,0,1-4,4.34c-2.52,0-4.57-2.11-4.57-6.61,0-5.09,2.39-7.13,5-7.13a4.44,4.44,0,0,1,3.32,1.43Zm-.57,6.71c0-1.71-.76-2.66-2.18-2.66a3.07,3.07,0,0,0-2.47,1.55c.22,2.63,1.17,3.87,2.59,3.87C992.55,327.37,993.46,326.32,993.46,324.61Z"/><path d="M1002.63,322.42c-.14.45-.28.9-.45,1.35H1011a5.42,5.42,0,0,1-.09.73c-.41,3.05-.84,4.45-1.51,5.05a2.51,2.51,0,0,1-1.71.57c-.63,0-1.82,0-3.06,0a3.17,3.17,0,0,0-.59-1.61c1.24.11,2.55.13,3.06.13a1.58,1.58,0,0,0,.88-.16c.41-.33.76-1.28,1-3.15h-7.4c-.14.39-.28.77-.41,1.09l-1.82-.26c.43-1,.94-2.4,1.37-3.71h-3.67V320.9h16v1.52Zm8.36-2.72H999.5v-5.4H1011Zm-1.73-3.93h-8.12v2.47h8.12Z"/><path d="M1025,323v1.35h5.86V330h-1.55v-.75H1025v.86h-1.51V318.67h-1.06v-1.93l-1,1.17a14.2,14.2,0,0,0-2.37-2.86,16.58,16.58,0,0,1-2.52,3.33h1.91v-1.6h1.42v1.6h1.92v6h-4.19v3l2.41-.58c-.27-.5-.57-1-.86-1.4l1.31-.6a16.24,16.24,0,0,1,2.18,4.09l-1.44.67a9.69,9.69,0,0,0-.56-1.52c-1.82.53-3.71,1.05-5.2,1.46l-.49-1.55,1.17-.25v-8.91c-.14.14-.3.27-.46.41a4.23,4.23,0,0,0-1.07-1.08,11.92,11.92,0,0,0,3.44-4.5h1.57a18.27,18.27,0,0,1,2.88,3v-1.1h3.51v-1.93h1.62v1.93h3.71v3.15h-1.17V323Zm-7.45-3.42v1.17h2.7v-1.17Zm2.7,3.51v-1.21h-2.7v1.21Zm3.67-6.23v1.55h5.78v-1.55Zm4.65,2.9H1025v1.89h3.57Zm-3.57,6v2.08h4.31v-2.08Z"/><path d="M934.39,583.94H932.7v3.56h-1.94v-3.56H925v-1.39l5.28-8.3h2.39v8.08h1.69Zm-3.63-1.61v-3.47c0-.72.07-1.84.1-2.56h-.07c-.32.67-.68,1.35-1.06,2l-2.61,4Z"/><path d="M941.41,581.2q-.21.67-.45,1.35h8.84a5.69,5.69,0,0,1-.09.74c-.41,3-.84,4.45-1.51,5a2.56,2.56,0,0,1-1.71.58c-.63,0-1.82,0-3.06,0a3.07,3.07,0,0,0-.6-1.6c1.25.11,2.56.12,3.06.12a1.53,1.53,0,0,0,.89-.16c.41-.32.75-1.28,1-3.15h-7.4c-.14.4-.29.77-.41,1.1l-1.82-.27c.43-1,.94-2.4,1.37-3.71h-3.68v-1.51h16v1.51Zm8.36-2.72H938.28v-5.4h11.49ZM948,574.56h-8.12V577H948Z"/><path d="M963.75,581.81v1.35h5.85v5.64h-1.55V588h-4.3v.87h-1.51V577.46h-1.06v-1.93l-1,1.17a14,14,0,0,0-2.38-2.86,16.77,16.77,0,0,1-2.52,3.33h1.91v-1.61h1.43v1.61h1.92v6H956.3v3l2.41-.57a15.5,15.5,0,0,0-.87-1.41l1.32-.59a16,16,0,0,1,2.18,4.08l-1.44.67a10,10,0,0,0-.56-1.51l-5.2,1.46-.49-1.55,1.17-.25v-8.92c-.14.15-.31.27-.47.42a3.9,3.9,0,0,0-1.06-1.08,12.1,12.1,0,0,0,3.44-4.5h1.56a17.54,17.54,0,0,1,2.89,3v-1.1h3.51v-1.92h1.62v1.92H970v3.16h-1.17v4.35Zm-7.45-3.42v1.17H959v-1.17Zm2.7,3.51v-1.2h-2.7v1.2Zm3.67-6.23v1.55h5.78v-1.55Zm4.65,2.9h-3.57v1.89h3.57Zm-3.57,6v2.07h4.3v-2.07Z"/><path d="M694.44,466c3.9-3.46,5.92-6,5.92-8.21a2.16,2.16,0,0,0-2.25-2.43,3.6,3.6,0,0,0-2.61,1.48l-1.17-1.16a5.2,5.2,0,0,1,4-2,3.75,3.75,0,0,1,4,4c0,2.56-2,5.2-4.84,7.89.68-.07,1.51-.13,2.16-.13H703v1.77h-8.55Z"/><path d="M710.39,460.94c-.15.45-.29.9-.45,1.36h8.84s0,.5-.09.73c-.42,3.05-.85,4.45-1.52,5a2.45,2.45,0,0,1-1.71.58c-.63,0-1.81,0-3.06,0a3.09,3.09,0,0,0-.59-1.61c1.24.11,2.56.13,3.06.13a1.56,1.56,0,0,0,.88-.16c.42-.33.76-1.28,1-3.15h-7.4c-.15.39-.29.77-.42,1.09l-1.82-.27c.44-1,.94-2.39,1.37-3.71h-3.67v-1.51h16v1.51Zm8.35-2.71H707.25v-5.41h11.49ZM717,454.3h-8.12v2.47H717Z"/><path d="M732.73,461.56v1.35h5.85v5.63H737v-.75h-4.3v.86h-1.52V457.2h-1.06v-1.93l-1,1.17a14.28,14.28,0,0,0-2.38-2.86,16.22,16.22,0,0,1-2.52,3.33h1.91v-1.6h1.42v1.6h1.93v6h-4.2v3l2.41-.58a14.47,14.47,0,0,0-.86-1.4l1.31-.6a16.07,16.07,0,0,1,2.18,4.09l-1.44.66a8.89,8.89,0,0,0-.55-1.51c-1.82.52-3.71,1.05-5.21,1.46l-.48-1.55,1.17-.25v-8.91l-.47.41a4.19,4.19,0,0,0-1.06-1.08,12,12,0,0,0,3.43-4.5h1.57a17.49,17.49,0,0,1,2.88,3v-1.1h3.51v-1.93h1.62v1.93H739v3.15h-1.17v4.36Zm-7.46-3.42v1.17H728v-1.17Zm2.7,3.51v-1.21h-2.7v1.21Zm3.68-6.23V457h5.78v-1.54Zm4.64,2.9h-3.56v1.89h3.56Zm-3.56,6v2.07H737v-2.07Z"/><path d="M434.49,598.05h2.9v-9.22H435v-1.32a8.06,8.06,0,0,0,2.88-1h1.57v11.55h2.59v1.71h-7.56Z"/><path d="M449.68,593.46q-.21.67-.45,1.35h8.84a5.42,5.42,0,0,1-.09.73c-.41,3.05-.85,4.45-1.51,5.05a2.51,2.51,0,0,1-1.71.57c-.63,0-1.82,0-3.06,0a3.19,3.19,0,0,0-.6-1.61c1.24.11,2.56.13,3.06.13a1.61,1.61,0,0,0,.89-.16c.41-.33.75-1.28,1-3.15h-7.4c-.14.39-.29.77-.41,1.09l-1.82-.27c.43-1,.93-2.39,1.37-3.7h-3.68v-1.52H460.2v1.52Zm8.36-2.72H446.55v-5.4H458Zm-1.73-3.93h-8.12v2.47h8.12Z"/><path d="M472,594.07v1.35h5.85v5.63h-1.55v-.75H472v.86h-1.51V589.71h-1.07v-1.93l-1,1.17a14.28,14.28,0,0,0-2.38-2.86,16.22,16.22,0,0,1-2.52,3.33h1.91v-1.6h1.42v1.6h1.93v6h-4.19v3l2.41-.58c-.27-.5-.58-1-.87-1.4l1.32-.6a16.57,16.57,0,0,1,2.18,4.09l-1.44.67a9.69,9.69,0,0,0-.56-1.52c-1.82.52-3.71,1-5.21,1.46l-.48-1.55,1.17-.25v-8.91l-.47.41a4.19,4.19,0,0,0-1.06-1.08,12.13,12.13,0,0,0,3.44-4.5h1.56a17.49,17.49,0,0,1,2.88,3v-1.1H473v-1.93h1.62v1.93h3.71v3.15h-1.17v4.36Zm-7.45-3.42v1.17h2.7v-1.17Zm2.7,3.51V593h-2.7v1.21Zm3.67-6.23v1.55h5.78v-1.55Zm4.64,2.9H472v1.89h3.56Zm-3.56,6v2.08h4.3V596.8Z"/><path d="M111.84,153a28.48,28.48,0,0,1-1.52,3.63V169h-1.6v-9.54c-.45.65-.88,1.22-1.33,1.76a10.54,10.54,0,0,0-.94-1.69,20.07,20.07,0,0,0,3.82-6.93Zm7,4.48a18,18,0,0,0,4.65,7.36,6.27,6.27,0,0,0-1.28,1.34,21.06,21.06,0,0,1-4.31-7.42v5.53h2.67v1.51H117.9v3.08h-1.63V165.8h-2.69v-1.51h2.69v-5.42a20.39,20.39,0,0,1-4.43,7.36,6.6,6.6,0,0,0-1.19-1.28,18.17,18.17,0,0,0,4.73-7.47h-3.94V155.9h4.83v-3.35h1.63v3.35h5.15v1.58Z"/><path d="M140.8,155.57h-4.19a26.14,26.14,0,0,1,4.12,3.37l-1.44,1a13.56,13.56,0,0,0-1.15-1.19c-4.49.18-9.22.31-12.35.35l-.06-1.54h2.47a22.48,22.48,0,0,0,1.28-2h-4.41V154.1h7v-1.66h1.71v1.66h7Zm-2.39,11.74c0,.83-.22,1.24-.85,1.44a10.83,10.83,0,0,1-3.06.24,5.69,5.69,0,0,0-.52-1.37c1,0,2.05,0,2.32,0s.41-.09.41-.35v-1.22h-7.49V169h-1.67v-9h10.86Zm-9.19-5.92v1.13h7.49v-1.13Zm7.49,3.47v-1.15h-7.49v1.15Zm-5.11-9.29c-.48.65-1,1.32-1.53,1.91,2,0,4.23-.07,6.46-.11-.54-.43-1.08-.83-1.58-1.19l1-.61Z"/><path d="M152.75,161.87v1.35h5.85v5.64h-1.54v-.76h-4.31V169h-1.51V157.52h-1.06v-1.93l-1.05,1.17a13.93,13.93,0,0,0-2.37-2.86,17.58,17.58,0,0,1-2.52,3.33h1.9v-1.6h1.43v1.6h1.92v6H145.3v3l2.41-.57c-.27-.51-.58-1-.86-1.41l1.31-.59a16.07,16.07,0,0,1,2.18,4.09l-1.44.66a10,10,0,0,0-.56-1.51l-5.2,1.46-.49-1.55,1.17-.25v-8.92c-.14.15-.31.27-.47.42a3.9,3.9,0,0,0-1.06-1.08,12,12,0,0,0,3.44-4.5h1.57a17.84,17.84,0,0,1,2.88,3v-1.09h3.51v-1.93h1.62v1.93H159v3.15h-1.17v4.35Zm-7.45-3.42v1.17H148v-1.17ZM148,162v-1.2h-2.7V162Zm3.67-6.23v1.55h5.78v-1.55Zm4.65,2.9h-3.57v1.89h3.57Zm-3.57,6v2.07h4.31v-2.07Z"/><path d="M116,177c-.16.2-.45.54-.59.76a17.78,17.78,0,0,1-4.41,5l-1.5-1.21a11.16,11.16,0,0,0,3.68-3.73h-9.89c-.7,0-1.33.06-2.1.11v-2a15.94,15.94,0,0,0,2.1.17h10.07a9.55,9.55,0,0,0,1.51-.13Zm-7.27,2.4c0,4.7-.27,8.15-5,10.58l-1.65-1.35a6.73,6.73,0,0,0,1.73-.88c2.57-1.66,3-3.92,3-6.91a8,8,0,0,0-.11-1.44Z"/><path d="M121.05,175.52c0,.37-.07.82-.07,1.33v6c0,.47,0,1.1.07,1.46H119c0-.31.09-.94.09-1.46v-6c0-.33,0-1-.08-1.33Zm8.32-.15c0,.47-.07,1-.07,1.66v3.2c0,4.13-.65,5.66-2,7.17A10,10,0,0,1,123,190l-1.5-1.57a8.29,8.29,0,0,0,4.36-2.36c1.26-1.42,1.49-2.82,1.49-6V177a15.09,15.09,0,0,0-.1-1.66Z"/><path d="M132.86,181.13c.58.06,1.69.11,2.66.11h9.78c.88,0,1.59-.07,2-.11v2.22c-.4,0-1.21-.07-2-.07h-9.8c-1,0-2.07,0-2.66.07Z"/><path d="M163.43,179.24c.7,0,1.4,0,1.73-.07v1.93c-.33,0-1.12-.06-1.75-.06H159c-.07,3.8-1.31,6.74-5.06,9l-1.76-1.31A7.91,7.91,0,0,0,157,181h-5c-.72,0-1.4,0-1.85.06v-1.95c.43,0,1.13.09,1.81.09h5V177a9.13,9.13,0,0,0-.2-1.95h2.27A13.49,13.49,0,0,0,159,177v2.21Z"/><path d="M694.15,369.15l1-1.33a4.27,4.27,0,0,0,3.13,1.46,2.22,2.22,0,0,0,2.52-2.2c0-1.48-.93-2.43-3.92-2.43v-1.53c2.61,0,3.47-1,3.47-2.32a1.85,1.85,0,0,0-2-1.93,3.89,3.89,0,0,0-2.65,1.26l-1.08-1.3a5.61,5.61,0,0,1,3.8-1.6c2.38,0,4.05,1.23,4.05,3.42a3.2,3.2,0,0,1-2.29,3.12v.09a3.36,3.36,0,0,1,2.74,3.31c0,2.4-2,3.8-4.43,3.8A5.49,5.49,0,0,1,694.15,369.15Z"/><path d="M710.39,364.43c-.15.45-.29.9-.45,1.35h8.84s0,.51-.09.74c-.42,3.05-.85,4.45-1.52,5a2.49,2.49,0,0,1-1.71.58c-.63,0-1.81,0-3.06,0a3.09,3.09,0,0,0-.59-1.6c1.24.11,2.56.13,3.06.13a1.56,1.56,0,0,0,.88-.16c.42-.33.76-1.28,1-3.16h-7.4c-.15.4-.29.78-.42,1.1l-1.82-.27c.44-1,.94-2.39,1.37-3.71h-3.67v-1.51h16v1.51Zm8.35-2.72H707.25v-5.4h11.49ZM717,357.79h-8.12v2.47H717Z"/><path d="M732.73,365.05v1.35h5.85V372H737v-.75h-4.3v.86h-1.52V360.69h-1.06v-1.93l-1,1.17a14.28,14.28,0,0,0-2.38-2.86,16.49,16.49,0,0,1-2.52,3.33h1.91v-1.6h1.42v1.6h1.93v6h-4.2v3c.78-.17,1.59-.37,2.41-.57a14.66,14.66,0,0,0-.86-1.41l1.31-.59a16.07,16.07,0,0,1,2.18,4.09l-1.44.66a8.89,8.89,0,0,0-.55-1.51c-1.82.52-3.71,1.05-5.21,1.46l-.48-1.55,1.17-.25V360.8l-.47.41a4.19,4.19,0,0,0-1.06-1.08,12,12,0,0,0,3.43-4.5h1.57a17.49,17.49,0,0,1,2.88,3v-1.1h3.51v-1.93h1.62v1.93H739v3.15h-1.17v4.36Zm-7.46-3.42v1.17H728v-1.17Zm2.7,3.51v-1.21h-2.7v1.21Zm3.68-6.23v1.54h5.78v-1.54Zm4.64,2.89h-3.56v1.9h3.56Zm-3.56,6v2.07H737v-2.07Z"/><polygon points="111.2 350.41 101.94 366.44 120.46 366.44 111.2 350.41"/><polygon points="221.77 357.71 205.74 348.45 205.74 366.97 221.77 357.71"/><polygon points="197.17 452.68 213.2 461.93 213.2 443.42 197.17 452.68"/></g><g id="レイヤー_3" data-name="レイヤー 3"><rect class="cls-10" x="240.83" y="300.11" width="65.96" height="18.29"/><rect class="cls-10" x="115.79" y="272.8" width="50.74" height="18.45"/><rect class="cls-10" x="90.7" y="433.66" width="85.79" height="36.31"/><polygon points="667.54 791.93 644.92 778.87 644.92 804.99 667.54 791.93"/><rect class="cls-7" x="361.69" y="775.18" width="51.17" height="33.5"/><rect class="cls-11" x="361.69" y="775.18" width="51.17" height="33.5"/><rect class="cls-9" x="361.69" y="775.18" width="51.17" height="33.5"/><path d="M441.21,788a9.49,9.49,0,0,0,1.76-.11v2.13c-.35,0-.91,0-1.76,0H440v.53c0,4-1,6.38-4.82,8.08L433.5,797c3.08-1.07,4.44-2.46,4.44-6.38V790h-3.79v2.17c0,.71.05,1.37.06,1.69H432a12.61,12.61,0,0,0,.1-1.69V790h-1.36c-.8,0-1.38,0-1.73.06v-2.18a10.22,10.22,0,0,0,1.73.15h1.36v-1.59A11.33,11.33,0,0,0,432,785h2.28a9.6,9.6,0,0,0-.1,1.46V788h3.79v-1.68a10.48,10.48,0,0,0-.09-1.49h2.27a14.71,14.71,0,0,0-.09,1.49V788Z"/><path d="M455.61,796.35l-.88,2A57.32,57.32,0,0,0,445,796l.8-2A65,65,0,0,1,455.61,796.35Zm-.67-5-.79,2a54.53,54.53,0,0,0-8.32-2l.74-1.94A66.48,66.48,0,0,1,454.94,791.33ZM456,787l-.82,2a54.94,54.94,0,0,0-8.66-2l.75-1.89A57.1,57.1,0,0,1,456,787Z"/><path d="M462.13,792.58l-1.95.73a33.52,33.52,0,0,0-1.45-3.7l1.92-.68C461.05,789.74,461.81,791.68,462.13,792.58Zm8.14-3.33c-.2.51-.29.84-.39,1.16a12.84,12.84,0,0,1-2.17,4.69,12.46,12.46,0,0,1-5.37,4l-1.68-1.71a9.42,9.42,0,0,0,7.35-8.83Zm-4.6,2.33-1.92.67a26.4,26.4,0,0,0-1.29-3.55l1.9-.62C464.66,788.77,465.45,790.85,465.67,791.58Z"/><path d="M482.47,793.92a46.48,46.48,0,0,0-5.77-2.39v4.53c0,.47.08,1.59.14,2.23h-2.5a16.49,16.49,0,0,0,.16-2.23v-9.18a10.44,10.44,0,0,0-.16-1.94h2.5a18.39,18.39,0,0,0-.14,1.94v2.35a52.37,52.37,0,0,1,6.69,2.48Z"/><path d="M486.61,786.57l6.85-.61c1.64-.12,3.37-.22,4.49-.27v2a16.41,16.41,0,0,0-3,.21,4.8,4.8,0,0,0-3.35,4.43c0,2.61,2.43,3.56,5.12,3.68l-.73,2.2c-3.33-.21-6.47-2-6.47-5.45a6.27,6.27,0,0,1,2.34-4.88c-1.38.15-4.71.5-6.55.9l-.21-2.18C485.7,786.64,486.31,786.6,486.61,786.57ZM497,791.45l-1.22.55a11.94,11.94,0,0,0-1.25-2.23l1.19-.49A22.09,22.09,0,0,1,497,791.45Zm1.86-.78-1.21.58a13.6,13.6,0,0,0-1.31-2.16l1.17-.55C497.93,789.1,498.54,790.05,498.88,790.67Z"/><path d="M506.65,796.38c.61-.08,1.06-.16,1.47-.25a4.29,4.29,0,0,0,3.6-4.24,3.92,3.92,0,0,0-3.31-4.2,33.39,33.39,0,0,1-1,4.31c-.94,3.2-2.32,5.15-4,5.15s-3.24-1.93-3.24-4.61a7.07,7.07,0,0,1,7.3-6.78,6,6,0,0,1,6.4,6.19c0,3.33-2.05,5.7-6.05,6.31Zm-1.23-4.8a26.31,26.31,0,0,0,.84-3.84,5,5,0,0,0-4,4.6c0,1.6.64,2.38,1.23,2.38S504.78,793.73,505.42,791.58Z"/><path d="M526,793.13a7.6,7.6,0,0,1-.88,2.79,16.07,16.07,0,0,0,5.48,1.34,7.9,7.9,0,0,0-1.14,1.7,14.56,14.56,0,0,1-5.47-1.68,8.07,8.07,0,0,1-3.29,1.71,11,11,0,0,0-1.18-1.58,7.53,7.53,0,0,0,2.91-1.23,9.56,9.56,0,0,1-2-2.39l1.56-.48a6.43,6.43,0,0,0,1.48,1.65,5.12,5.12,0,0,0,.6-1.83h-3.57v-4.67h3.68v-1.12h-4v-1.47c-.29.61-.61,1.23-1,1.84V799h-1.81v-8.6a16.36,16.36,0,0,1-1.31,1.5,13.44,13.44,0,0,0-1-1.95,17.11,17.11,0,0,0,3.88-6l1.76.58c-.15.33-.29.67-.44,1h3.91v-1.45h1.89v1.45h4.24v1.73h-4.24v1.12H530v4.67Zm-1.79-1.53V790h-2v1.59Zm1.89-1.59v1.59h2V790Z"/><path d="M545.29,796.74c0,1-.22,1.53-.86,1.82a7.57,7.57,0,0,1-3.08.34,7,7,0,0,0-.6-1.83c.89,0,2,0,2.24,0s.41-.09.41-.38v-2.4H540v4.47H538.1v-4.47h-3.26a9.18,9.18,0,0,1-2,4.75,7.19,7.19,0,0,0-1.5-1.23c1.74-1.92,1.89-4.77,1.89-7v-5.71h12.08Zm-7.19-4.21v-2h-3v.29c0,.51,0,1.08-.05,1.68Zm-3-5.61v1.86h3v-1.86Zm8.3,0H540v1.86h3.37Zm0,5.61v-2H540v2Z"/><path d="M560.06,797.36c.62,0,.75-.27.85-1.68a5.49,5.49,0,0,0,1.53.66c-.2,2-.68,2.61-2.24,2.61h-2.8c-1.89,0-2.4-.52-2.4-2.34v-3.07l-.66.3-.65-1.55c-.07,3.92-.18,5.46-.55,6a1.42,1.42,0,0,1-1,.65,8.09,8.09,0,0,1-1.65.08,4.48,4.48,0,0,0-.46-1.69,9.43,9.43,0,0,0,1.15.06.45.45,0,0,0,.46-.26c.21-.32.31-1.66.37-5.42h-1.25c-.22,2.88-.73,5.47-2.06,7.3a5.73,5.73,0,0,0-1.36-1.33c1.58-2.19,1.73-5.72,1.77-9.41h-1.53v-1.76H550v-2.42h1.82v2.42h2.5v1.2a11.47,11.47,0,0,0,1.42-3.64l1.88.36c-.13.56-.31,1.12-.48,1.66h5v1.73h-5.74a10.57,10.57,0,0,1-.92,1.55h1.17v1.54l.87-.4v-2.29h1.58v1.55l1.15-.53.07,0,.28-.21,1.19.41-.06.26c0,2.27,0,3.91-.07,4.39a1.11,1.11,0,0,1-.69,1.1,3.59,3.59,0,0,1-1.31.18,5.13,5.13,0,0,0-.35-1.4c.19,0,.41,0,.54,0s.21,0,.23-.24,0-1,0-2.55l-1,.48v4.47h-1.58v-3.73l-.87.4v3.86c0,.65.11.75.91.75Zm-5.06-5.7V790l-.14.16a10.84,10.84,0,0,0-1.43-1.35,4.7,4.7,0,0,0,.51-.57h-3.05c0,.57,0,1.15,0,1.71h2.88v.72l0,1.6Z"/><path d="M569.69,788.19h-6.26v-1.51h6.26Zm8,3.1a10.82,10.82,0,0,1-2.47,4.66,11.15,11.15,0,0,0,3.3,1.38,7.88,7.88,0,0,0-1.23,1.65,11,11,0,0,1-3.53-1.75,12.78,12.78,0,0,1-3.66,1.75,7.85,7.85,0,0,0-1-1.65v.82h-3.35v.62h-1.62v-5.46h5v4a10.8,10.8,0,0,0,3.23-1.38,11.14,11.14,0,0,1-1.84-2.77l1.63-.53H569.9v-1.71h.54a7.86,7.86,0,0,0-1.33-1.15v.61h-4.93v-1.46h4.93v.77a3.6,3.6,0,0,0,1.56-3.28v-1.91H576v3.59c0,.45,0,.49.21.49h.39c.21,0,.28-.2.29-1.6a5.08,5.08,0,0,0,1.56.67c-.16,2-.58,2.55-1.65,2.55h-.93c-1.28,0-1.65-.5-1.65-2.08v-1.94h-1.79v.27a5.06,5.06,0,0,1-2,4.47h5.64l.32-.08Zm-8.57,1.24h-4.93V791.1h4.93Zm0-6.55h-4.83v-1.44h4.83Zm-1.63,8.84h-1.7v1.84h1.7Zm4.72-2.2a7.79,7.79,0,0,0,1.55,2.16,7.5,7.5,0,0,0,1.51-2.16Z"/><path d="M687.57,789.65a21.89,21.89,0,0,1-1.13,5.69c1.48,1.19,3.5,1.43,5.84,1.44.94,0,4.19,0,5.36,0a7,7,0,0,0-.74,1.85h-4.67c-2.71,0-4.88-.32-6.58-1.6a6.85,6.85,0,0,1-1.78,2.07,6.39,6.39,0,0,0-1.42-1.28,6.15,6.15,0,0,0,1.87-2.15,10.66,10.66,0,0,1-1.5-3.1l1.49-.55a7.58,7.58,0,0,0,.78,1.81,17.18,17.18,0,0,0,.56-2.69h-1.09l-.21.47-1.72-.45c.68-1.41,1.45-3.14,2-4.53h-2.08v-1.67h2.93l.29-.06,1.3.35c-.48,1.25-1.14,2.77-1.8,4.23h.81l.33-.05Zm3.49-3.14h-2.93v-1.44h2.93v-.91h1.86v.91h3.33v2.1h1.2v1.45h-1.2v2.1h-3.33v.7h3.46v1.38h-3.46v.75h4.19V795h-4.19v1.3h-1.86V795h-3.79v-1.49h3.79v-.75H688v-1.38h3.1v-.7h-3v-1.44h3v-.66h-4v-1.45h4Zm1.86,0v.66h1.45v-.66Zm1.45,2.11h-1.45v.66h1.45Z"/><path d="M704.82,792.78c-.58.16-1.14.35-1.73.53V799h-1.74v-5.17c-.87.26-1.67.51-2.4.7l-.47-1.8c.8-.18,1.78-.44,2.87-.74v-3.06h-1.08a13.07,13.07,0,0,1-.59,2,14.77,14.77,0,0,0-1.34-.88,20.11,20.11,0,0,0,.91-5.15l1.58.27c-.06.64-.14,1.26-.24,1.9h.76v-3.07h1.74v3.07h1.33v1.81h-1.33v2.58l1.47-.42Zm8.61-6.26s0,.65,0,.87c-.3,7.14-.59,9.75-1.2,10.55a1.76,1.76,0,0,1-1.25.83,9.31,9.31,0,0,1-1.81.05,5.32,5.32,0,0,0-.53-1.86A14,14,0,0,0,710,797a.66.66,0,0,0,.59-.3c.4-.51.69-2.69.94-8.43h-.08c-.78,4-2.43,8.19-5,10.32a7.06,7.06,0,0,0-1.55-1.11c2.56-1.84,4.16-5.47,5-9.21h-.75a16.27,16.27,0,0,1-3.66,7,7.09,7.09,0,0,0-1.46-1.08,12.48,12.48,0,0,0,3.54-5.93h-.82a11.68,11.68,0,0,1-1.65,2.86,10.55,10.55,0,0,0-1.44-1.07,13.17,13.17,0,0,0,2.63-6l1.72.32a19.07,19.07,0,0,1-.59,2.16Z"/><path d="M728.46,792.21V799h-2v-.91H717.6V799h-1.93v-6.78h1.93v4H721v-4.83h-4.64v-5.81h1.89v4H721v-5.3h1.95v5.3h2.91v-4h2v5.81H722.9v4.83h3.57v-4Z"/><path d="M739.25,784.94c0,3,.44,8.87,6.33,12.34A10.31,10.31,0,0,0,744,799a13.57,13.57,0,0,1-5.89-7.9,13.81,13.81,0,0,1-5.91,7.91,15.68,15.68,0,0,0-1.74-1.55c3.33-1.68,5.23-4.77,6.11-9l1,.18c-.11-.61-.18-1.19-.23-1.73h-3.65v-1.94Z"/><path d="M760.33,785.61v13h-2.1v-1.26h-8.48v1.29h-2V785.61Zm-2.1,9.8v-7.86h-8.48v7.86Z"/></g><g id="レイヤー_4" data-name="レイヤー 4"><path d="M110.09,448.87l1-1.36a4.22,4.22,0,0,0,3.1,1.43,2.59,2.59,0,0,0,2.62-2.83,2.45,2.45,0,0,0-2.52-2.77,3.5,3.5,0,0,0-2.12.75l-1-.66.4-6.29h6.71v1.75h-4.91l-.31,3.4a3.73,3.73,0,0,1,1.82-.47c2.21,0,4,1.32,4,4.22a4.37,4.37,0,0,1-4.46,4.59A5.88,5.88,0,0,1,110.09,448.87Z"/><path d="M126.34,444.09c-.14.45-.28.9-.45,1.35h8.84a5.51,5.51,0,0,1-.09.74c-.41,3-.84,4.45-1.51,5a2.51,2.51,0,0,1-1.71.58c-.63,0-1.82,0-3.06,0a3.18,3.18,0,0,0-.59-1.6c1.24.11,2.55.13,3.06.13a1.58,1.58,0,0,0,.88-.16c.41-.33.76-1.28,1-3.16h-7.4c-.14.4-.29.78-.41,1.1l-1.82-.27c.43-1,.94-2.39,1.37-3.71h-3.67v-1.51h16v1.51Zm8.36-2.71H123.21V436H134.7ZM133,437.45h-8.12v2.47H133Z"/><path d="M148.68,444.71v1.35h5.85v5.63H153v-.75h-4.31v.86h-1.51V440.35h-1.06v-1.93l-1.05,1.17a14.2,14.2,0,0,0-2.37-2.86,16.87,16.87,0,0,1-2.52,3.33h1.9v-1.6h1.43v1.6h1.92v6h-4.19v3l2.41-.58c-.27-.51-.58-1-.86-1.41l1.31-.59a16.07,16.07,0,0,1,2.18,4.09l-1.44.66a10,10,0,0,0-.56-1.51l-5.2,1.46-.49-1.55,1.17-.25v-8.91c-.14.14-.3.27-.47.41a4,4,0,0,0-1.06-1.08,11.92,11.92,0,0,0,3.44-4.5h1.57a17.88,17.88,0,0,1,2.88,3v-1.1h3.51v-1.93h1.62v1.93H155v3.15h-1.17v4.36Zm-7.45-3.43v1.18h2.7v-1.18Zm2.7,3.52v-1.21h-2.7v1.21Zm3.67-6.23v1.54h5.78v-1.54Zm4.65,2.89h-3.57v1.9h3.57Zm-3.57,6v2.07H153v-2.07Z"/><path d="M138.16,284.78a33.18,33.18,0,0,1-3.78,2.23,14.62,14.62,0,0,0,4.7,1.35,5.59,5.59,0,0,0-1,1.46c-3.87-.67-6.61-2.31-8.17-5.15h-2.47v3.13l4.27-.39v1.49c-2.73.29-5.61.56-7.65.74l-.23-1.55,1.94-.14v-9.13a23,23,0,0,1-2.21,1.13,7.21,7.21,0,0,0-1-1.37,18.79,18.79,0,0,0,7.38-5.33h1.67a19.4,19.4,0,0,0,7.73,5.13,12.3,12.3,0,0,0-1.05,1.5c-.7-.31-1.44-.68-2.18-1.1v5.58c.29-.2.54-.39.78-.57Zm-3-6.59a20,20,0,0,1-4.26-3.46,18.77,18.77,0,0,1-4.09,3.46h3.26v-1.62h1.71v1.62Zm-7.72,2.57h7v-1.24h-7Zm0,2.59h7V282h-7Zm4.16,1.32a7.44,7.44,0,0,0,1.49,1.53,27.74,27.74,0,0,0,2.61-1.53Z"/><path d="M147.3,277.16a17.26,17.26,0,0,1-2,3.73c.63.5,1.91,1.65,2.25,2l-1,1.37c-.36-.47-1-1.26-1.64-1.89v7.45H143.3v-6.45a14.78,14.78,0,0,1-2.14,1.84,7.09,7.09,0,0,0-.81-1.55,14.22,14.22,0,0,0,4.9-5.53H141V276.6h2.3v-3.31H145v3.31h1.12l.29-.05Zm9.56-.81v9.13h-1.6v-.65H153v5h-1.61v-5h-2.19v.74h-1.53v-9.22h3.72v-3H153v3Zm-7.7,1.51v2h2.19v-2Zm2.19,5.46v-2h-2.19v2Zm1.61-5.46v2h2.3v-2Zm2.3,5.46v-2H153v2Z"/><polygon class="cls-12" points="134.94 309.02 144.36 289.36 154.24 308.79 175.85 311.67 160.42 327.08 164.36 348.52 144.94 338.61 125.76 348.98 129.19 327.45 113.4 312.41 134.94 309.02"/><path d="M142.42,323.71a9.45,9.45,0,0,1-3.07,3.72,21.21,21.21,0,0,0,5.3,1.09,9.26,9.26,0,0,0-1.17,1.78,19.37,19.37,0,0,1-6.12-1.68,20.88,20.88,0,0,1-6.22,1.71,6.84,6.84,0,0,0-1.12-1.68,22.12,22.12,0,0,0,5.44-1.17,10.4,10.4,0,0,1-2.53-2.51l.53-.22h-.76V323h8.09l.35-.08Zm-10.24-.12H130.4v-3.47h2.29a10.43,10.43,0,0,0-.75-1.65l1.42-.4c-.8.05-1.62.08-2.38.1a6.26,6.26,0,0,0-.44-1.62,88.87,88.87,0,0,0,11.94-1.09l1.29,1.54c-1.73.32-3.8.58-5.93.77a8.2,8.2,0,0,1,.72,2.06l-1.18.29h2.78a17.6,17.6,0,0,0,1-2.4l2,.48c-.37.67-.79,1.33-1.16,1.92h2.28v3.47H142.5v-1.82H132.18Zm5.55-5.82c-1.34.13-2.74.22-4.1.28a9.31,9.31,0,0,1,.9,1.83l-.83.24h3.05a9.48,9.48,0,0,0-.6-2Zm-2.78,7a9.23,9.23,0,0,0,2.43,1.85,8,8,0,0,0,2.18-1.85Z"/><path d="M150.72,316.23a29.36,29.36,0,0,1-1.52,3.23v11h-1.95v-8a16.27,16.27,0,0,1-1.12,1.28,16.53,16.53,0,0,0-1.12-2,16.77,16.77,0,0,0,3.82-6.12Zm9.3,4.67h-1.76v7.27c0,1.23-.29,1.73-1.06,2a11.62,11.62,0,0,1-3.74.32,7.42,7.42,0,0,0-.74-1.89c1.24.05,2.64.05,3,0s.55-.13.55-.48V320.9h-6.1V319h6.1v-3.26h2V319H160ZM153,326.68a38.52,38.52,0,0,0-2.06-3.84l1.69-.78c.72,1.17,1.72,2.73,2.2,3.69Z"/><path d="M99.27,467.2l-.53,1.18a39,39,0,0,0-7.19-1.79l.47-1.17A46,46,0,0,1,99.27,467.2Zm-.47-3.8-.47,1.16a39.36,39.36,0,0,0-6.11-1.47l.44-1.14A45.47,45.47,0,0,1,98.8,463.4Zm.8-3.24-.49,1.18a39.32,39.32,0,0,0-6.35-1.47l.44-1.11A41.54,41.54,0,0,1,99.6,460.16Z"/><path d="M102.28,467.55a1.33,1.33,0,0,0,.14-.67v-6.71a7.14,7.14,0,0,0-.11-1.21h1.49a8,8,0,0,0-.11,1.2v6.56a13.2,13.2,0,0,0,6.39-4l.68,1.06a14.37,14.37,0,0,1-7,4.3,2.15,2.15,0,0,0-.6.26Z"/><path d="M111.83,465.92c.43,0,.91.07,1.35.07h7a9.55,9.55,0,0,0,1.2-.07v1.45c-.39,0-.86-.06-1.2-.06h-7c-.44,0-.93,0-1.35.06Zm1-5.9c.39,0,.87.06,1.27.06h5.06c.45,0,.92,0,1.25-.06v1.37c-.34,0-.84-.05-1.25-.05h-5.05c-.43,0-.9,0-1.28.05Z"/><path d="M133,459.86c-.1.13-.3.36-.39.51a12.21,12.21,0,0,1-2.94,3.31l-1-.81a7.44,7.44,0,0,0,2.45-2.48h-6.58c-.47,0-.89,0-1.41.07v-1.33a10.87,10.87,0,0,0,1.41.11h6.7a7.26,7.26,0,0,0,1-.08Zm-4.84,1.6c0,3.13-.18,5.43-3.34,7.05l-1.1-.9a4.34,4.34,0,0,0,1.15-.59c1.72-1.1,2-2.61,2-4.6a5.3,5.3,0,0,0-.07-1Z"/><path d="M142.11,468.44c-.16-.42-.37-.95-.62-1.5-1.91.23-5.75.65-7.31.79l-1.05.14-.22-1.39c.37,0,.84,0,1.2,0l.49,0c.67-1.71,1.81-5.28,2.15-6.51a7.34,7.34,0,0,0,.26-1.25l1.5.32a12.15,12.15,0,0,0-.45,1.21c-.36,1.14-1.46,4.53-2.06,6.11,1.64-.14,3.66-.37,4.95-.53a16,16,0,0,0-1.37-2.34l1.16-.51a35.8,35.8,0,0,1,2.64,4.93Z"/><path d="M147,459.61l1.36.28a8.76,8.76,0,0,0-.24,1,27.56,27.56,0,0,1-1.07,3.68,17.84,17.84,0,0,1-1.76,3.36l-1.31-.56a15.75,15.75,0,0,0,1.86-3.28A18.38,18.38,0,0,0,147,459.61Zm3,.26,1.24-.4c.49.9,1.28,2.64,1.76,3.85s1.09,3,1.43,4.15l-1.38.44a34.7,34.7,0,0,0-1.31-4.17A31.68,31.68,0,0,0,150,459.87Z"/><path d="M165.57,460.7a3.78,3.78,0,0,0-.2.82,11,11,0,0,1-1.16,3.51,7.63,7.63,0,0,1-4.81,3.49l-1-1.14a7.85,7.85,0,0,0,1.44-.39,6.22,6.22,0,0,0,3-2.26,8.38,8.38,0,0,0,1.11-3.31h-6.38v2a6.52,6.52,0,0,0,0,.79h-1.3c0-.25,0-.6,0-.86v-2.1c0-.27,0-.7,0-1,.37,0,.72.06,1.16.06h2.61v-1a5.63,5.63,0,0,0-.08-1h1.45a8.25,8.25,0,0,0-.07,1v1h2.42a2.63,2.63,0,0,0,.9-.12Z"/><path d="M175.24,459.9a5.49,5.49,0,0,0-.35.62,16.22,16.22,0,0,1-2,3.42,33.56,33.56,0,0,1,3.43,3.51l-1.07.94a25.59,25.59,0,0,0-3.17-3.5,15.45,15.45,0,0,1-4.61,3.44l-1-1a13.32,13.32,0,0,0,4.93-3.51,9.79,9.79,0,0,0,1.91-3.17H169c-.47,0-1.12.06-1.31.07v-1.35c.24,0,.94.08,1.31.08h4.45a3.68,3.68,0,0,0,1-.12Z"/><path d="M252.48,312.67a4,4,0,0,1,2.37-3.56V309a3.77,3.77,0,0,1-1.78-3.1c0-2.07,1.6-3.42,3.78-3.42A3.43,3.43,0,0,1,260.6,306a4.1,4.1,0,0,1-1.75,3.11v.09a3.89,3.89,0,0,1,2.23,3.51c0,2-1.73,3.48-4.28,3.48S252.48,314.72,252.48,312.67Zm6.64,0c0-1.62-1.46-2.23-3.26-3a3.38,3.38,0,0,0-1.55,2.77,2.32,2.32,0,0,0,2.52,2.24A2.06,2.06,0,0,0,259.12,312.67Zm-.27-6.54a2,2,0,0,0-2-2.14,1.82,1.82,0,0,0-1.89,1.93c0,1.44,1.26,2.11,2.74,2.68A3.36,3.36,0,0,0,258.85,306.13Z"/><path d="M268.39,309.66c-.15.45-.29.9-.45,1.35h8.84s0,.51-.09.74c-.42,3.05-.85,4.45-1.51,5a2.53,2.53,0,0,1-1.71.58c-.63,0-1.82,0-3.06,0a3.19,3.19,0,0,0-.6-1.6c1.24.11,2.56.13,3.06.13a1.56,1.56,0,0,0,.88-.16c.42-.33.76-1.28,1.05-3.15h-7.4c-.15.39-.29.77-.42,1.09l-1.81-.27c.43-1,.93-2.39,1.36-3.71h-3.67v-1.51h16v1.51Zm8.35-2.71H265.26v-5.41h11.48ZM275,303h-8.13v2.47H275Z"/><path d="M290.73,310.28v1.35h5.85v5.63H295v-.75h-4.3v.86h-1.51V305.92h-1.07V304l-1,1.17a14.28,14.28,0,0,0-2.38-2.86,16.49,16.49,0,0,1-2.52,3.33h1.91V304h1.42v1.6h1.93v6h-4.2v3l2.42-.58c-.27-.5-.58-1-.87-1.41l1.32-.59a16,16,0,0,1,2.17,4.09l-1.44.66a8.89,8.89,0,0,0-.55-1.51c-1.82.52-3.71,1.05-5.21,1.46l-.48-1.55,1.17-.25V306l-.47.41a4.19,4.19,0,0,0-1.06-1.08,12.13,12.13,0,0,0,3.44-4.5h1.56a17.49,17.49,0,0,1,2.88,3v-1.1h3.51v-1.93h1.62v1.93H297v3.15h-1.17v4.36Zm-7.46-3.43V308H286v-1.18Zm2.7,3.52v-1.21h-2.7v1.21Zm3.68-6.23v1.54h5.78v-1.54Zm4.64,2.9h-3.56v1.89h3.56Zm-3.56,6v2.07H295V313Z"/><circle class="cls-6" cx="747.34" cy="107.97" r="28.19"/><polygon class="cls-13" points="753.73 103.98 760.06 128.31 740.96 111.96 734.62 87.64 753.73 103.98"/><polygon class="cls-14" points="753.73 103.98 740.96 111.96 734.62 87.64 753.73 103.98"/><rect class="cls-15" x="1095.64" y="101.52" width="27.36" height="568.75"/><rect class="cls-15" x="1100.74" y="746.67" width="22.26" height="56.53"/><path d="M19.45,458.24A14.55,14.55,0,0,1,16.2,462a11.5,11.5,0,0,0-1.7-1.23,9.91,9.91,0,0,0,3-3.17Zm1.36-.8H14.55v-1.8H16.7V452h1.93v3.61h2.16V451h1.94v1.51h4.61v1.7H22.73v1.48h6.16v1.8H22.7v3c0,.87-.18,1.35-.8,1.6a7.52,7.52,0,0,1-2.64.26,6.77,6.77,0,0,0-.58-1.71c.7,0,1.58,0,1.81,0s.32-.06.32-.22Zm6.51,4.61a8,8,0,0,0-.94-1.35c-1.6,3.47-4.72,4.71-9.7,5.32a5.66,5.66,0,0,0-.91-1.86c4.57-.34,7.44-1.28,8.75-4.27l1.54.43a22.84,22.84,0,0,0-1.76-1.78l1.55-1A16.92,16.92,0,0,1,29,461Z"/><path d="M18.15,479.77c.66,1.08,1.86,1.51,3.52,1.57,1.88.08,5.48,0,7.61-.13a10.13,10.13,0,0,0-.6,1.93c-1.92.09-5.13.12-7,0s-3.28-.52-4.32-1.77c-.7.62-1.41,1.25-2.29,1.92l-.93-2a22.17,22.17,0,0,0,2.2-1.47v-3.38H14.45v-1.74h3.7Zm-1.1-7.18a12,12,0,0,0-2.58-2.53l1.41-1.15a12.68,12.68,0,0,1,2.67,2.41Zm5.38.08c.06-.29.11-.58.16-.87H18.71v-1.53h2.23a6.71,6.71,0,0,0-.74-1.16l1.51-.56a5.67,5.67,0,0,1,1,1.64l-.2.08h2a13.11,13.11,0,0,0,.85-1.73l1.89.4c-.29.48-.57.94-.85,1.33h2.47v1.53H24.63c-.12.31-.27.6-.4.87h3.51v7.78h-7.8v-7.78ZM25.85,474H21.74v.84h4.11Zm0,2.09H21.74V477h4.11Zm0,2.09H21.74v.85h4.11Z"/><path class="cls-10" d="M1105.38,416.22a11.83,11.83,0,0,0-3-1.72l.79-1.12a14.14,14.14,0,0,1,3,1.61Zm1.2,2.21c-.72,1.68-1.62,3.57-2.42,5.08l-1.33-.9a44.1,44.1,0,0,0,2.61-5.17l1.14.88v-.43h1.52v-7.62l1.2.29a41.41,41.41,0,0,0,5.71-1.38l1.17,1.17a44.48,44.48,0,0,1-6.59,1.42v1.57h7.34v1.41h-2.11v3.14h2.47v1.39h-10.71Zm-.35-6.4a12.66,12.66,0,0,0-2.9-1.82l.82-1.09a12.08,12.08,0,0,1,2.94,1.69Zm4.73,8.31a14.68,14.68,0,0,1-3.5,3.41,11,11,0,0,0-1.27-1,11,11,0,0,0,3.27-2.89Zm-1.37-2.45h3.76v-3.14h-3.76Zm4.59,1.92a21.77,21.77,0,0,1,3.22,3.09l-1.36.83a19.88,19.88,0,0,0-3.14-3.2Z"/><path class="cls-10" d="M1116.41,427.71v13.46h-1.54v-1h-10v1h-1.48V427.71Zm-11.54,1.42v4H1109v-4Zm0,9.56H1109v-4.07h-4.16Zm10-9.56h-4.34v4h4.34Zm0,9.56v-4.07h-4.34v4.07Z"/><path class="cls-10" d="M1106,445.05v5.43c0,3.06-.24,6.18-2.32,8.56a6.86,6.86,0,0,0-1.26-1.07c1.84-2.1,2.06-4.8,2.06-7.49v-5.43Zm5,.68v11.73h-1.52V445.73Zm5.15-.71v13.86h-1.56V445Z"/></g></svg>