<svg xmlns="http://www.w3.org/2000/svg" viewBox="0 0 90 90"><defs><style>.cls-1{fill:#fff;stroke-width:2.83px;}.cls-1,.cls-2{stroke:#a1d295;stroke-miterlimit:10;}.cls-2,.cls-3{fill:none;}.cls-2{stroke-linecap:round;stroke-width:2.83px;}.cls-3{stroke:#fff;stroke-width:11.34px;}</style></defs><title>candy</title><g id="レイヤー_6のコピー" data-name="レイヤー 6のコピー"><circle class="cls-1" cx="57.62" cy="29.78" r="22.03"/><path class="cls-2" d="M52.86,50.88s-16-12.44-5-24.91c5.28-5.94,11.52-5.9,16-2,5.4,4.6,5.71,10.43,1.63,15.22-5.21,6.12-16.26-1.54-10.06-7.79"/><rect class="cls-1" x="2.56" y="61.86" width="47.85" height="3.52" rx="1.76" transform="translate(-39.12 42.53) rotate(-49.58)"/><circle class="cls-3" cx="57.62" cy="29.78" r="22.03"/><path class="cls-3" d="M52.86,50.88s-16-12.44-5-24.91c5.28-5.94,11.52-5.9,16-2,5.4,4.6,5.71,10.43,1.63,15.22-5.21,6.12-16.26-1.54-10.06-7.79"/><rect class="cls-3" x="2.56" y="61.86" width="47.85" height="3.52" rx="1.76" transform="translate(-39.12 42.53) rotate(-49.58)"/></g><g id="キャンディ"><circle class="cls-1" cx="57.62" cy="29.78" r="22.03"/><path class="cls-2" d="M52.86,50.88s-16-12.44-5-24.91c5.28-5.94,11.52-5.9,16-2,5.4,4.6,5.71,10.43,1.63,15.22-5.21,6.12-16.26-1.54-10.06-7.79"/><rect class="cls-1" x="24.72" y="39.69" width="3.52" height="47.85" rx="1.76" transform="matrix(0.76, 0.65, -0.65, 0.76, 47.57, -1.99)"/></g></svg>