<svg xmlns="http://www.w3.org/2000/svg" viewBox="0 0 90 90"><defs><style>.cls-1,.cls-2,.cls-3{fill:#abeaff;}.cls-1,.cls-4{stroke:#abeaff;}.cls-1,.cls-3,.cls-4{stroke-miterlimit:10;}.cls-2,.cls-3,.cls-5{stroke:#fff;}.cls-2,.cls-5{stroke-linecap:round;stroke-linejoin:round;}.cls-4{fill:#fff;}.cls-5{fill:none;stroke-width:11.34px;}</style></defs><title>chocolate</title><g id="チョコレートのコピー"><rect class="cls-1" x="12.6" y="25.84" width="66.35" height="36.6" rx="1.62" transform="translate(-11.69 71.36) rotate(-69.3)"/><rect class="cls-2" x="39.55" y="15.33" width="10.23" height="7" transform="translate(11.26 53.95) rotate(-69.3)"/><rect class="cls-2" x="58.62" y="22.53" width="10.23" height="7" transform="translate(16.86 76.45) rotate(-69.3)"/><rect class="cls-2" x="49.09" y="18.93" width="10.23" height="7" transform="translate(14.06 65.2) rotate(-69.3)"/><rect class="cls-2" x="34.4" y="28.36" width="10.23" height="7" transform="translate(-4.26 57.56) rotate(-69.3)"/><rect class="cls-2" x="53.83" y="35.52" width="10.26" height="7.02" transform="translate(1.81 80.67) rotate(-69.58)"/><rect class="cls-2" x="43.93" y="31.96" width="10.23" height="7" transform="translate(-1.46 68.8) rotate(-69.3)"/><rect class="cls-1" x="23.64" y="42.57" width="31.12" height="37.86" transform="translate(-32.19 76.43) rotate(-69.3)"/><rect class="cls-3" x="24.9" y="42.96" width="31.68" height="32.41" rx="3.94" transform="translate(-29.01 76.36) rotate(-69.3)"/><polygon class="cls-4" points="18.45 41.27 25.96 42.13 29.8 50.77 39.62 46.22 43.23 55.84 51.83 50.29 55.06 60.31 61.4 55.53 65.97 59.5 64.03 49.34 28.62 35.95 18.45 41.27"/><rect class="cls-5" x="12.6" y="25.84" width="66.35" height="36.6" rx="1.62" transform="translate(-11.69 71.36) rotate(-69.3)"/><rect class="cls-5" x="39.55" y="15.33" width="10.23" height="7" transform="translate(11.26 53.95) rotate(-69.3)"/><rect class="cls-5" x="58.62" y="22.53" width="10.23" height="7" transform="translate(16.86 76.45) rotate(-69.3)"/><rect class="cls-5" x="49.09" y="18.93" width="10.23" height="7" transform="translate(14.06 65.2) rotate(-69.3)"/><rect class="cls-5" x="34.4" y="28.36" width="10.23" height="7" transform="translate(-4.26 57.56) rotate(-69.3)"/><rect class="cls-5" x="53.83" y="35.52" width="10.26" height="7.02" transform="translate(1.81 80.67) rotate(-69.58)"/><rect class="cls-5" x="43.93" y="31.96" width="10.23" height="7" transform="translate(-1.46 68.8) rotate(-69.3)"/><rect class="cls-5" x="23.64" y="42.57" width="31.12" height="37.86" transform="translate(-32.19 76.43) rotate(-69.3)"/><rect class="cls-5" x="24.9" y="42.96" width="31.68" height="32.41" rx="3.94" transform="translate(-29.01 76.36) rotate(-69.3)"/><polygon class="cls-5" points="18.45 41.27 25.96 42.13 29.8 50.77 39.62 46.22 43.23 55.84 51.83 50.29 55.06 60.31 61.4 55.53 65.97 59.5 64.03 49.34 28.62 35.95 18.45 41.27"/></g><g id="チョコレート"><rect class="cls-1" x="12.6" y="25.84" width="66.35" height="36.6" rx="1.62" transform="translate(-11.69 71.36) rotate(-69.3)"/><rect class="cls-2" x="39.55" y="15.33" width="10.23" height="7" transform="translate(11.26 53.95) rotate(-69.3)"/><rect class="cls-2" x="58.62" y="22.53" width="10.23" height="7" transform="translate(16.86 76.45) rotate(-69.3)"/><rect class="cls-2" x="49.09" y="18.93" width="10.23" height="7" transform="translate(14.06 65.2) rotate(-69.3)"/><rect class="cls-2" x="34.4" y="28.36" width="10.23" height="7" transform="translate(-4.26 57.56) rotate(-69.3)"/><rect class="cls-2" x="53.83" y="35.52" width="10.26" height="7.02" transform="translate(1.81 80.67) rotate(-69.58)"/><rect class="cls-2" x="43.93" y="31.96" width="10.23" height="7" transform="translate(-1.46 68.8) rotate(-69.3)"/><rect class="cls-1" x="23.64" y="42.57" width="31.12" height="37.86" transform="translate(-32.19 76.43) rotate(-69.3)"/><rect class="cls-3" x="24.9" y="42.96" width="31.68" height="32.41" rx="3.94" transform="translate(-29.01 76.36) rotate(-69.3)"/><polygon class="cls-4" points="18.45 41.27 25.96 42.13 29.8 50.77 39.62 46.22 43.23 55.84 51.83 50.29 55.06 60.31 61.4 55.53 65.97 59.5 64.03 49.34 28.62 35.95 18.45 41.27"/></g></svg>