<svg xmlns="http://www.w3.org/2000/svg" viewBox="0 0 90 90"><defs><style>.cls-1,.cls-6{fill:#a1d295;}.cls-1,.cls-2,.cls-3,.cls-4,.cls-5,.cls-8,.cls-9{stroke:#fff;}.cls-1,.cls-10,.cls-2,.cls-3,.cls-4,.cls-5,.cls-7,.cls-8,.cls-9{stroke-linecap:round;}.cls-1,.cls-10,.cls-2,.cls-3,.cls-4,.cls-5,.cls-8,.cls-9{stroke-linejoin:round;}.cls-1,.cls-2,.cls-3,.cls-4,.cls-5{stroke-width:11.34px;}.cls-2,.cls-3,.cls-4,.cls-7,.cls-8,.cls-9{fill:none;}.cls-2,.cls-7{stroke-dasharray:2.81 2.81;}.cls-3,.cls-8{stroke-dasharray:0.27 9.54;}.cls-4,.cls-9{stroke-dasharray:0.29 10.04;}.cls-10,.cls-5{fill:#fff;}.cls-10,.cls-7{stroke:#a1d295;stroke-width:2.83px;}.cls-7{stroke-miterlimit:10;}.cls-8,.cls-9{stroke-width:0.71px;}</style></defs><title>cookie</title><g id="クッキー"><circle class="cls-1" cx="60.92" cy="60.1" r="21.67"/><circle class="cls-2" cx="60.92" cy="60.1" r="21.67"/><circle class="cls-1" cx="60.92" cy="60.1" r="13.09"/><circle class="cls-3" cx="60.92" cy="60.1" r="13.09"/><circle class="cls-1" cx="60.92" cy="60.1" r="7.66"/><circle class="cls-4" cx="60.92" cy="60.1" r="7.66"/><rect class="cls-5" x="12.28" y="13.1" width="41.92" height="41.92" rx="3.97" transform="translate(-9.82 13.78) rotate(-20.48)"/><path class="cls-1" d="M25.91,14.42,42.13,8.36a3.61,3.61,0,0,1,4.66,2.1h0l6.07,16.25h0L33.24,34.05h0L25.91,14.42Z"/><path class="cls-1" d="M13.6,41.39l19.64-7.33h0l7.33,19.63h0L24,59.88A3.27,3.27,0,0,1,19.8,58L13.61,41.39h0Z"/></g><g id="クッキーのコピー"><circle class="cls-6" cx="60.92" cy="60.1" r="21.67"/><circle class="cls-7" cx="60.92" cy="60.1" r="21.67"/><circle class="cls-6" cx="60.92" cy="60.1" r="13.09"/><circle class="cls-8" cx="60.92" cy="60.1" r="13.09"/><circle class="cls-6" cx="60.92" cy="60.1" r="7.66"/><circle class="cls-9" cx="60.92" cy="60.1" r="7.66"/><rect class="cls-10" x="12.28" y="13.1" width="41.92" height="41.92" rx="3.97" transform="translate(-9.82 13.78) rotate(-20.48)"/><path class="cls-6" d="M25.91,14.42,42.13,8.36a3.61,3.61,0,0,1,4.66,2.1h0l6.07,16.25h0L33.24,34.05h0L25.91,14.42Z"/><path class="cls-6" d="M13.6,41.39l19.64-7.33h0l7.33,19.63h0L24,59.88A3.27,3.27,0,0,1,19.8,58L13.61,41.39h0Z"/></g></svg>