<svg xmlns="http://www.w3.org/2000/svg" viewBox="0 0 90 90"><defs><style>.cls-1,.cls-4,.cls-6{fill:#fff;}.cls-1,.cls-2,.cls-3{stroke:#abeaff;}.cls-1,.cls-2,.cls-3,.cls-6,.cls-7,.cls-8{stroke-miterlimit:10;}.cls-1,.cls-6{stroke-width:2.83px;}.cls-2,.cls-5,.cls-7{fill:none;stroke-linecap:round;}.cls-2,.cls-7{stroke-width:1px;}.cls-3{fill:#abeaff;}.cls-5{stroke:#fff;stroke-linejoin:round;stroke-width:11.34px;}.cls-6,.cls-7,.cls-8{stroke:#a1d295;}.cls-8{fill:#a1d295;}</style></defs><title>crepe-g</title><g id="クレープのコピー_3" data-name="クレープのコピー 3"><ellipse class="cls-1" cx="48.22" cy="25.9" rx="4.63" ry="9.25" transform="translate(-6.36 21.75) rotate(-23.89)"/><ellipse class="cls-1" cx="42.1" cy="27.57" rx="4.63" ry="9.25" transform="translate(-7.56 19.41) rotate(-23.89)"/><path class="cls-1" d="M14.05,35,42.38,81.76a3.8,3.8,0,0,0,6.08,0L76,35C77,33.21,65.06,6.73,45,6.73,25.69,6.73,13,33.24,14.05,35Z"/><ellipse class="cls-1" cx="31.28" cy="37.6" rx="7.4" ry="15.85" transform="translate(-13.62 18.2) rotate(-26.87)"/><ellipse class="cls-1" cx="58.72" cy="37.6" rx="15.85" ry="7.4" transform="translate(-1.36 72.98) rotate(-63.13)"/><ellipse class="cls-1" cx="44.33" cy="34.01" rx="7.27" ry="16.15"/><line class="cls-2" x1="31.38" y1="34.5" x2="32.7" y2="36.67"/><line class="cls-2" x1="29.29" y1="36.06" x2="30.61" y2="38.22"/><line class="cls-2" x1="42.89" y1="30.07" x2="42.89" y2="32.14"/><line class="cls-2" x1="45.91" y1="30.07" x2="45.91" y2="32.14"/><line class="cls-2" x1="59.15" y1="34.01" x2="58.14" y2="35.58"/><line class="cls-2" x1="60.9" y1="35.27" x2="59.89" y2="36.84"/><ellipse class="cls-3" cx="45.39" cy="45" rx="16.1" ry="11.13"/><polygon class="cls-4" points="17.4 37.6 58.72 61.44 45.39 81.28 17.4 37.6"/><polygon class="cls-4" points="72.6 37.6 37.06 54.18 52.56 70.61 72.6 37.6"/><line class="cls-1" x1="75.95" y1="34.97" x2="43.78" y2="51.96"/><line class="cls-1" x1="60.39" y1="61.44" x2="14.05" y2="35"/><ellipse class="cls-5" cx="48.22" cy="25.9" rx="4.63" ry="9.25" transform="translate(-6.36 21.75) rotate(-23.89)"/><ellipse class="cls-5" cx="42.1" cy="27.57" rx="4.63" ry="9.25" transform="translate(-7.56 19.41) rotate(-23.89)"/><path class="cls-5" d="M14.05,35,42.38,81.76a3.8,3.8,0,0,0,6.08,0L76,35C77,33.21,65.06,6.73,45,6.73,25.69,6.73,13,33.24,14.05,35Z"/><ellipse class="cls-5" cx="31.28" cy="37.6" rx="7.4" ry="15.85" transform="translate(-13.62 18.2) rotate(-26.87)"/><ellipse class="cls-5" cx="58.72" cy="37.6" rx="15.85" ry="7.4" transform="translate(-1.36 72.98) rotate(-63.13)"/><ellipse class="cls-5" cx="44.33" cy="34.01" rx="7.27" ry="16.15"/><line class="cls-5" x1="31.38" y1="34.5" x2="32.7" y2="36.67"/><line class="cls-5" x1="29.29" y1="36.06" x2="30.61" y2="38.22"/><line class="cls-5" x1="42.89" y1="30.07" x2="42.89" y2="32.14"/><line class="cls-5" x1="45.91" y1="30.07" x2="45.91" y2="32.14"/><line class="cls-5" x1="59.15" y1="34.01" x2="58.14" y2="35.58"/><line class="cls-5" x1="60.9" y1="35.27" x2="59.89" y2="36.84"/><ellipse class="cls-5" cx="45.39" cy="45" rx="16.1" ry="11.13"/><polygon class="cls-5" points="17.4 37.6 58.72 61.44 45.39 81.28 17.4 37.6"/><polygon class="cls-5" points="72.6 37.6 37.06 54.18 52.56 70.61 72.6 37.6"/><line class="cls-5" x1="75.95" y1="34.97" x2="43.78" y2="51.96"/><line class="cls-5" x1="60.39" y1="61.44" x2="14.05" y2="35"/></g><g id="クレープ緑"><ellipse class="cls-6" cx="48.22" cy="25.9" rx="4.63" ry="9.25" transform="translate(-6.36 21.75) rotate(-23.89)"/><ellipse class="cls-6" cx="42.1" cy="27.57" rx="4.63" ry="9.25" transform="translate(-7.56 19.41) rotate(-23.89)"/><path class="cls-6" d="M14.05,35,42.38,81.76a3.8,3.8,0,0,0,6.08,0L76,35C77,33.21,65.06,6.73,45,6.73,25.69,6.73,13,33.24,14.05,35Z"/><ellipse class="cls-6" cx="31.28" cy="37.6" rx="7.4" ry="15.85" transform="translate(-13.62 18.2) rotate(-26.87)"/><ellipse class="cls-6" cx="58.72" cy="37.6" rx="15.85" ry="7.4" transform="translate(-1.36 72.98) rotate(-63.13)"/><ellipse class="cls-6" cx="44.33" cy="34.01" rx="7.27" ry="16.15"/><line class="cls-7" x1="31.38" y1="34.5" x2="32.7" y2="36.67"/><line class="cls-7" x1="29.29" y1="36.06" x2="30.61" y2="38.22"/><line class="cls-7" x1="42.89" y1="30.07" x2="42.89" y2="32.14"/><line class="cls-7" x1="45.91" y1="30.07" x2="45.91" y2="32.14"/><line class="cls-7" x1="59.15" y1="34.01" x2="58.14" y2="35.58"/><line class="cls-7" x1="60.9" y1="35.27" x2="59.89" y2="36.84"/><ellipse class="cls-8" cx="45.39" cy="45" rx="16.1" ry="11.13"/><polygon class="cls-4" points="17.4 37.6 58.72 61.44 45.39 81.28 17.4 37.6"/><polygon class="cls-4" points="72.6 37.6 37.06 54.18 52.56 70.61 72.6 37.6"/><line class="cls-6" x1="75.95" y1="34.97" x2="43.78" y2="51.96"/><line class="cls-6" x1="60.39" y1="61.44" x2="14.05" y2="35"/></g></svg>