<svg xmlns="http://www.w3.org/2000/svg" viewBox="0 0 90 90"><defs><style>.cls-1,.cls-3,.cls-5{fill:#fff;}.cls-1,.cls-2{stroke:#a1d295;}.cls-1,.cls-3,.cls-4{stroke-miterlimit:10;}.cls-1,.cls-2,.cls-3,.cls-4,.cls-5{stroke-width:2.83px;}.cls-2{fill:#a1d295;}.cls-2,.cls-3,.cls-4,.cls-5{stroke-linecap:round;}.cls-2,.cls-5{stroke-linejoin:round;}.cls-3,.cls-4,.cls-5,.cls-6{stroke:#fff;}.cls-4{fill:#231815;}.cls-6{fill:none;stroke-width:11.34px;}</style></defs><title>cupcake</title><g id="カップケーキ"><path class="cls-1" d="M58.35,82.39H32.16a8.93,8.93,0,0,1-8.83-7.56L18.79,45.47H72L67.16,74.9A8.93,8.93,0,0,1,58.35,82.39Z"/><line class="cls-1" x1="58.01" y1="41.87" x2="54.47" y2="82.32"/><line class="cls-1" x1="32.75" y1="41.87" x2="36.29" y2="82.32"/><path class="cls-2" d="M25.63,19.67s0-10.35,18.24-11.93C61,6.26,68.06,17.57,66.32,22.36c0,0,9.75,0,13.7,11.11,2.44,6.85.82,14.48-2.85,18-3.44,3.25-15.28,7.06-21.83.74,0,0-10.69,8.39-20.82.57,0,0-2.78,4.27-10.55,3.66-6-.48-14.4-6.63-15.1-15.73C8.1,30.78,16.29,19.18,25.63,19.67Z"/><line class="cls-3" x1="43.25" y1="26.6" x2="45.38" y2="29.3"/><line class="cls-4" x1="34.31" y1="37.36" x2="38.7" y2="37.36"/><line class="cls-3" x1="53.33" y1="16.79" x2="50.51" y2="17.57"/><line class="cls-5" x1="36.02" y1="19.67" x2="39.14" y2="17.18"/><line class="cls-5" x1="58.01" y1="30.04" x2="61.79" y2="31.52"/><line class="cls-5" x1="67.1" y1="38" x2="69.02" y2="35.78"/><line class="cls-5" x1="25.31" y1="32.55" x2="23.75" y2="35.86"/><path class="cls-6" d="M58.35,82.39H32.16a8.93,8.93,0,0,1-8.83-7.56L18.79,45.47H72L67.16,74.9A8.93,8.93,0,0,1,58.35,82.39Z"/><line class="cls-6" x1="58.01" y1="41.87" x2="54.47" y2="82.32"/><line class="cls-6" x1="32.75" y1="41.87" x2="36.29" y2="82.32"/><path class="cls-6" d="M25.63,19.67s0-10.35,18.24-11.93C61,6.26,68.06,17.57,66.32,22.36c0,0,9.75,0,13.7,11.11,2.44,6.85.82,14.48-2.85,18-3.44,3.25-15.28,7.06-21.83.74,0,0-10.69,8.39-20.82.57,0,0-2.78,4.27-10.55,3.66-6-.48-14.4-6.63-15.1-15.73C8.1,30.78,16.29,19.18,25.63,19.67Z"/><line class="cls-6" x1="43.25" y1="26.6" x2="45.38" y2="29.3"/><line class="cls-6" x1="34.31" y1="37.36" x2="38.7" y2="37.36"/><line class="cls-6" x1="53.33" y1="16.79" x2="50.51" y2="17.57"/><line class="cls-6" x1="36.02" y1="19.67" x2="39.14" y2="17.18"/><line class="cls-6" x1="58.01" y1="30.04" x2="61.79" y2="31.52"/><line class="cls-6" x1="67.1" y1="38" x2="69.02" y2="35.78"/><line class="cls-6" x1="25.31" y1="32.55" x2="23.75" y2="35.86"/></g><g id="カップケーキのコピー"><path class="cls-1" d="M58.35,82.39H32.16a8.93,8.93,0,0,1-8.83-7.56L18.79,45.47H72L67.16,74.9A8.93,8.93,0,0,1,58.35,82.39Z"/><line class="cls-1" x1="58.01" y1="41.87" x2="54.47" y2="82.32"/><line class="cls-1" x1="32.75" y1="41.87" x2="36.29" y2="82.32"/><path class="cls-2" d="M25.63,19.67s0-10.35,18.24-11.93C61,6.26,68.06,17.57,66.32,22.36c0,0,9.75,0,13.7,11.11,2.44,6.85.82,14.48-2.85,18-3.44,3.25-15.28,7.06-21.83.74,0,0-10.69,8.39-20.82.57,0,0-2.78,4.27-10.55,3.66-6-.48-14.4-6.63-15.1-15.73C8.1,30.78,16.29,19.18,25.63,19.67Z"/><line class="cls-3" x1="43.25" y1="26.6" x2="45.38" y2="29.3"/><line class="cls-4" x1="34.31" y1="37.36" x2="38.7" y2="37.36"/><line class="cls-3" x1="53.33" y1="16.79" x2="50.51" y2="17.57"/><line class="cls-5" x1="36.02" y1="19.67" x2="39.14" y2="17.18"/><line class="cls-5" x1="58.01" y1="30.04" x2="61.79" y2="31.52"/><line class="cls-5" x1="67.1" y1="38" x2="69.02" y2="35.78"/><line class="cls-5" x1="25.31" y1="32.55" x2="23.75" y2="35.86"/></g></svg>