<svg xmlns="http://www.w3.org/2000/svg" viewBox="0 0 90 90"><defs><style>.cls-1{fill:#fff;stroke:#a1d295;stroke-miterlimit:10;stroke-width:2.83px;}.cls-1,.cls-2{stroke-linecap:round;}.cls-2{fill:none;stroke:#fff;stroke-linejoin:round;stroke-width:11.34px;}</style></defs><title>icecandy</title><g id="レイヤー_12" data-name="レイヤー 12"><rect class="cls-1" x="41.85" y="51.34" width="6.29" height="31.8" rx="2.91"/><path class="cls-1" d="M31.09,62.84H59.15c3,0,5.5-2.76,5.5-6.17,0,0,.38-28.94,0-33.63C64.1,16.26,56.29,6.86,45.12,6.86c-11.72,0-18.32,9.86-19.53,16.6-.93,5.2,0,33.21,0,33.21C25.59,60.08,28.05,62.84,31.09,62.84Z"/><line class="cls-1" x1="35.93" y1="35.89" x2="35.93" y2="62.15"/><line class="cls-1" x1="54.07" y1="35.89" x2="54.07" y2="62.15"/><line class="cls-1" x1="45" y1="34.62" x2="45" y2="62.15"/><rect class="cls-2" x="41.85" y="51.34" width="6.29" height="31.8" rx="2.91"/><path class="cls-2" d="M31.09,62.84H59.15c3,0,5.5-2.76,5.5-6.17,0,0,.38-28.94,0-33.63C64.1,16.26,56.29,6.86,45.12,6.86c-11.72,0-18.32,9.86-19.53,16.6-.93,5.2,0,33.21,0,33.21C25.59,60.08,28.05,62.84,31.09,62.84Z"/><line class="cls-2" x1="35.93" y1="35.89" x2="35.93" y2="62.15"/><line class="cls-2" x1="54.07" y1="35.89" x2="54.07" y2="62.15"/><line class="cls-2" x1="45" y1="34.62" x2="45" y2="62.15"/></g><g id="アイスキャンディ"><rect class="cls-1" x="41.85" y="51.34" width="6.29" height="31.8" rx="2.91"/><path class="cls-1" d="M31.09,62.84H59.15c3,0,5.5-2.76,5.5-6.17,0,0,.38-28.94,0-33.63C64.1,16.26,56.29,6.86,45.12,6.86c-11.72,0-18.32,9.86-19.53,16.6-.93,5.2,0,33.21,0,33.21C25.59,60.08,28.05,62.84,31.09,62.84Z"/><line class="cls-1" x1="35.93" y1="35.89" x2="35.93" y2="62.15"/><line class="cls-1" x1="54.07" y1="35.89" x2="54.07" y2="62.15"/><line class="cls-1" x1="45" y1="34.62" x2="45" y2="62.15"/></g></svg>