<svg xmlns="http://www.w3.org/2000/svg" viewBox="0 0 90 90"><defs><style>.cls-1,.cls-3{fill:#fff;}.cls-1,.cls-2{stroke:#fff;stroke-linecap:round;stroke-width:11.34px;}.cls-1,.cls-2,.cls-3,.cls-4{stroke-miterlimit:10;}.cls-2{fill:#a1d295;}.cls-3,.cls-4{stroke:#81666a;stroke-width:2.83px;}.cls-4{fill:#81666a;}</style></defs><title>pancake</title><g id="パンケーキ白枠"><path class="cls-1" d="M10.5,49.56A15.44,15.44,0,0,0,8.6,64c2.53,6.21,22,10.28,36.74,10.28,15.56,0,34-3.89,36.09-10.28a18,18,0,0,0-1.25-14.39"/><path class="cls-1" d="M10.5,35.23c-2.38,5.09-.83,12-.83,12,0,6.07,17.6,11.22,36.84,11.22S80.36,53.3,80.36,47.23a29.75,29.75,0,0,0-.18-12"/><ellipse class="cls-2" cx="45.34" cy="35.23" rx="34.84" ry="7.58"/><rect class="cls-1" x="39.26" y="21.91" width="11.48" height="11.48" rx="1.4" transform="translate(64.7 -21.35) rotate(80.33)"/></g><g id="パンケーキ"><path class="cls-3" d="M10.47,49.56A15.46,15.46,0,0,0,8.57,64c2.54,6.22,22.07,10.29,36.77,10.29,15.57,0,34.06-3.89,36.12-10.29a18,18,0,0,0-1.25-14.4"/><path class="cls-3" d="M10.47,35.22c-2.38,5.09-.83,12-.83,12,0,6.08,17.62,11.23,36.87,11.23s33.88-5.15,33.88-11.23a29.8,29.8,0,0,0-.18-12"/><ellipse class="cls-4" cx="45.34" cy="35.22" rx="34.87" ry="7.58"/><rect class="cls-3" x="39.26" y="21.89" width="11.49" height="11.49" rx="1.4" transform="translate(64.69 -21.37) rotate(80.33)"/></g></svg>