<svg xmlns="http://www.w3.org/2000/svg" viewBox="0 0 90 90"><defs><style>.cls-1{fill:#fff;}.cls-1,.cls-2,.cls-3{stroke:#a1d295;stroke-miterlimit:10;}.cls-1,.cls-3{stroke-width:2.83px;}.cls-2,.cls-4{fill:none;}.cls-2{stroke-width:5.67px;}.cls-3{fill:#a1d295;}.cls-4{stroke:#fff;stroke-width:11.34px;}</style></defs><title>popcorn</title><g id="レイヤー_26" data-name="レイヤー 26"><path class="cls-1" d="M30.17,16.9s3-8.69,11.4-8.74a10.07,10.07,0,0,1,10.14,7.33s3.76-7.23,12.39-3.25c7.17,3.34,9.16,11.79,4.47,15.39,0,0,4.7,0,5.33,5.64,1.08,9.39-12.45,9-12.45,9l-3.66,6.57S26,53.31,25.16,47.35a21.75,21.75,0,0,1,1.58-11.1s-11.63,2.81-12.77-3,2.57-7.37,6.14-8.46c0,0-4.16-8.37.93-10.51C27.34,11.57,30.17,16.9,30.17,16.9Z"/><polygon class="cls-1" points="64.17 82.64 27.18 82.64 22.58 40.26 68.78 40.26 64.17 82.64"/><line class="cls-2" x1="35.5" y1="82.67" x2="30.9" y2="40.28"/><line class="cls-2" x1="57.23" y1="82.67" x2="61.84" y2="40.28"/><line class="cls-2" x1="46.37" y1="40.37" x2="46.37" y2="82.16"/><ellipse class="cls-3" cx="45.68" cy="52.19" rx="17.55" ry="5.48"/><path class="cls-1" d="M73,20s5.4.82,4.32-4a3,3,0,0,0-3.44-2.55h0a3.81,3.81,0,0,0-2-4.08A3,3,0,0,0,68,9.86a4.09,4.09,0,0,0-2.88-2.48c-2.23-.33-5.18,3.46-2.82,5.5,0,0-6.93,6.16.42,11.07C69.75,28.59,73,20,73,20Z"/><path class="cls-1" d="M18.53,30.83s-3.71-3.71-5.64.65a2.89,2.89,0,0,0,1.22,3.91h0a3.67,3.67,0,0,0-.75,4.31,2.81,2.81,0,0,0,3.17,1.69,3.93,3.93,0,0,0,.81,3.55c1.53,1.52,6,.28,5.31-2.64,0,0,8.85-.82,6-8.78C25.92,26,18.53,30.83,18.53,30.83Z"/><path class="cls-1" d="M49.75,39.3s-1.32,5.5,3.76,4.81a3.11,3.11,0,0,0,2.91-3.31v0a4,4,0,0,0,4.41-1.72,3.07,3.07,0,0,0-.24-3.89,4.22,4.22,0,0,0,2.81-2.75c.54-2.26-3.11-5.63-5.43-3.39,0,0-5.75-7.68-11.45-.54C41.12,35.23,49.75,39.3,49.75,39.3Z"/><path class="cls-1" d="M42.49,19.57s2.82-3.86-1.35-5a2.65,2.65,0,0,0-3.37,1.65,3.35,3.35,0,0,0-4-.09,2.6,2.6,0,0,0-1.09,3.12,3.62,3.62,0,0,0-3.1,1.23c-1.15,1.58.59,5.42,3.13,4.43,0,0,2,7.88,8.76,4.17C47.89,25.58,42.49,19.57,42.49,19.57Z"/><path class="cls-4" d="M30.17,16.9s3-8.69,11.4-8.74a10.07,10.07,0,0,1,10.14,7.33s3.76-7.23,12.39-3.25c7.17,3.34,9.16,11.79,4.47,15.39,0,0,4.7,0,5.33,5.64,1.08,9.39-12.45,9-12.45,9l-3.66,6.57S26,53.31,25.16,47.35a21.75,21.75,0,0,1,1.58-11.1s-11.63,2.81-12.77-3,2.57-7.37,6.14-8.46c0,0-4.16-8.37.93-10.51C27.34,11.57,30.17,16.9,30.17,16.9Z"/><polygon class="cls-4" points="64.17 82.64 27.18 82.64 22.58 40.26 68.78 40.26 64.17 82.64"/><line class="cls-4" x1="35.5" y1="82.67" x2="30.9" y2="40.28"/><line class="cls-4" x1="57.23" y1="82.67" x2="61.84" y2="40.28"/><line class="cls-4" x1="46.37" y1="40.37" x2="46.37" y2="82.16"/><ellipse class="cls-4" cx="45.68" cy="52.19" rx="17.55" ry="5.48"/><path class="cls-4" d="M73,20s5.4.82,4.32-4a3,3,0,0,0-3.44-2.55h0a3.81,3.81,0,0,0-2-4.08A3,3,0,0,0,68,9.86a4.09,4.09,0,0,0-2.88-2.48c-2.23-.33-5.18,3.46-2.82,5.5,0,0-6.93,6.16.42,11.07C69.75,28.59,73,20,73,20Z"/><path class="cls-4" d="M18.53,30.83s-3.71-3.71-5.64.65a2.89,2.89,0,0,0,1.22,3.91h0a3.67,3.67,0,0,0-.75,4.31,2.81,2.81,0,0,0,3.17,1.69,3.93,3.93,0,0,0,.81,3.55c1.53,1.52,6,.28,5.31-2.64,0,0,8.85-.82,6-8.78C25.92,26,18.53,30.83,18.53,30.83Z"/><path class="cls-4" d="M49.75,39.3s-1.32,5.5,3.76,4.81a3.11,3.11,0,0,0,2.91-3.31v0a4,4,0,0,0,4.41-1.72,3.07,3.07,0,0,0-.24-3.89,4.22,4.22,0,0,0,2.81-2.75c.54-2.26-3.11-5.63-5.43-3.39,0,0-5.75-7.68-11.45-.54C41.12,35.23,49.75,39.3,49.75,39.3Z"/><path class="cls-4" d="M42.49,19.57s2.82-3.86-1.35-5a2.65,2.65,0,0,0-3.37,1.65,3.35,3.35,0,0,0-4-.09,2.6,2.6,0,0,0-1.09,3.12,3.62,3.62,0,0,0-3.1,1.23c-1.15,1.58.59,5.42,3.13,4.43,0,0,2,7.88,8.76,4.17C47.89,25.58,42.49,19.57,42.49,19.57Z"/></g><g id="ポップコーン"><path class="cls-1" d="M30.17,16.9s3-8.69,11.4-8.74a10.07,10.07,0,0,1,10.14,7.33s3.76-7.23,12.39-3.25c7.17,3.34,9.16,11.79,4.47,15.39,0,0,4.7,0,5.33,5.64,1.08,9.39-12.45,9-12.45,9l-3.66,6.57S26,53.31,25.16,47.35a21.75,21.75,0,0,1,1.58-11.1s-11.63,2.81-12.77-3,2.57-7.37,6.14-8.46c0,0-4.16-8.37.93-10.51C27.34,11.57,30.17,16.9,30.17,16.9Z"/><polygon class="cls-1" points="64.17 82.64 27.18 82.64 22.58 40.26 68.78 40.26 64.17 82.64"/><line class="cls-2" x1="35.5" y1="82.67" x2="30.9" y2="40.28"/><line class="cls-2" x1="57.23" y1="82.67" x2="61.84" y2="40.28"/><line class="cls-2" x1="46.37" y1="40.37" x2="46.37" y2="82.16"/><ellipse class="cls-3" cx="45.68" cy="52.19" rx="17.55" ry="5.48"/><path class="cls-1" d="M73,20s5.4.82,4.32-4a3,3,0,0,0-3.44-2.55h0a3.81,3.81,0,0,0-2-4.08A3,3,0,0,0,68,9.86a4.09,4.09,0,0,0-2.88-2.48c-2.23-.33-5.18,3.46-2.82,5.5,0,0-6.93,6.16.42,11.07C69.75,28.59,73,20,73,20Z"/><path class="cls-1" d="M18.53,30.83s-3.71-3.71-5.64.65a2.89,2.89,0,0,0,1.22,3.91h0a3.67,3.67,0,0,0-.75,4.31,2.81,2.81,0,0,0,3.17,1.69,3.93,3.93,0,0,0,.81,3.55c1.53,1.52,6,.28,5.31-2.64,0,0,8.85-.82,6-8.78C25.92,26,18.53,30.83,18.53,30.83Z"/><path class="cls-1" d="M49.75,39.3s-1.32,5.5,3.76,4.81a3.11,3.11,0,0,0,2.91-3.31v0a4,4,0,0,0,4.41-1.72,3.07,3.07,0,0,0-.24-3.89,4.22,4.22,0,0,0,2.81-2.75c.54-2.26-3.11-5.63-5.43-3.39,0,0-5.75-7.68-11.45-.54C41.12,35.23,49.75,39.3,49.75,39.3Z"/><path class="cls-1" d="M42.49,19.57s2.82-3.86-1.35-5a2.65,2.65,0,0,0-3.37,1.65,3.35,3.35,0,0,0-4-.09,2.6,2.6,0,0,0-1.09,3.12,3.62,3.62,0,0,0-3.1,1.23c-1.15,1.58.59,5.42,3.13,4.43,0,0,2,7.88,8.76,4.17C47.89,25.58,42.49,19.57,42.49,19.57Z"/></g></svg>