<svg xmlns="http://www.w3.org/2000/svg" viewBox="0 0 90 90"><defs><style>.cls-1,.cls-4{fill:#fff;}.cls-1,.cls-2,.cls-3{stroke:#abeaff;}.cls-1,.cls-2{stroke-miterlimit:10;}.cls-1,.cls-3{stroke-width:2.83px;}.cls-2,.cls-3{fill:#abeaff;}.cls-3,.cls-5{stroke-linecap:round;stroke-linejoin:round;}.cls-5{fill:none;stroke:#fff;stroke-width:11.34px;}</style></defs><title>pudding</title><g id="レイヤー_14" data-name="レイヤー 14"><path class="cls-1" d="M81.74,72.06a135.19,135.19,0,0,1-36.74,5,148.26,148.26,0,0,1-36.75-5c-.92,0,13.21-51.55,13.21-51.55.66-2.26,3.14-3.86,6-3.86H64.7c2.94,0,5.47,1.69,6,4C70.75,20.67,82.65,72.06,81.74,72.06Z"/><path class="cls-2" d="M21.06,23.8s-.46,14,3.44,14.65c4.5.7,5.28-4.91,8.57-4.91,4.49,0,4.74,4.7,8.32,4.7,4.3,0,4.88-4.57,8-4.56,4.58,0,3.73,4.77,7.45,4.77,3.29,0,2.44-5.09,6.68-5.09,4.55,0,4.51,5.34,7.09,5.34,3.44,0,2.32-8.13.75-16.35-1.73-9.09-27-8-27-8S22.85,14,21.06,23.8"/><ellipse class="cls-3" cx="46.09" cy="19.66" rx="23.51" ry="6.71"/><path class="cls-4" d="M70,19.66a2.48,2.48,0,0,1-.4,1.59,5.39,5.39,0,0,1-1.12,1.26,13.4,13.4,0,0,1-2.82,1.78,31.48,31.48,0,0,1-6.23,2.09,58.15,58.15,0,0,1-12.94,1.4,57.57,57.57,0,0,1-12.94-1.4,30.84,30.84,0,0,1-6.23-2.09,14.34,14.34,0,0,1-2.82-1.77,5.65,5.65,0,0,1-1.12-1.27,2.55,2.55,0,0,1-.4-1.59A2.33,2.33,0,0,0,23.7,21a5.11,5.11,0,0,0,1.23.88A14.49,14.49,0,0,0,27.8,23a42.08,42.08,0,0,0,6.13,1.22c2.08.25,4.16.48,6.25.57s4.19.19,6.29.17,4.2,0,6.29-.17,4.18-.32,6.25-.57A42.08,42.08,0,0,0,65.14,23,13.68,13.68,0,0,0,68,21.87,5,5,0,0,0,69.25,21,2.31,2.31,0,0,0,70,19.66Z"/><path class="cls-5" d="M81.74,72.06a135.19,135.19,0,0,1-36.74,5,148.26,148.26,0,0,1-36.75-5c-.92,0,13.21-51.55,13.21-51.55.66-2.26,3.14-3.86,6-3.86H64.7c2.94,0,5.47,1.69,6,4C70.75,20.67,82.65,72.06,81.74,72.06Z"/><path class="cls-5" d="M21.06,23.8s-.46,14,3.44,14.65c4.5.7,5.28-4.91,8.57-4.91,4.49,0,4.74,4.7,8.32,4.7,4.3,0,4.88-4.57,8-4.56,4.58,0,3.73,4.77,7.45,4.77,3.29,0,2.44-5.09,6.68-5.09,4.55,0,4.51,5.34,7.09,5.34,3.44,0,2.32-8.13.75-16.35-1.73-9.09-27-8-27-8S22.85,14,21.06,23.8"/><ellipse class="cls-5" cx="46.09" cy="19.66" rx="23.51" ry="6.71"/><path class="cls-5" d="M70,19.66c0,3.7-10.52,6.71-23.51,6.71S23,23.36,23,19.66"/><path class="cls-5" d="M70,19.66a2.48,2.48,0,0,1-.4,1.59,5.39,5.39,0,0,1-1.12,1.26,13.4,13.4,0,0,1-2.82,1.78,31.48,31.48,0,0,1-6.23,2.09,58.15,58.15,0,0,1-12.94,1.4,57.57,57.57,0,0,1-12.94-1.4,30.84,30.84,0,0,1-6.23-2.09,14.34,14.34,0,0,1-2.82-1.77,5.65,5.65,0,0,1-1.12-1.27,2.55,2.55,0,0,1-.4-1.59A2.33,2.33,0,0,0,23.7,21a5.11,5.11,0,0,0,1.23.88A14.49,14.49,0,0,0,27.8,23a42.08,42.08,0,0,0,6.13,1.22c2.08.25,4.16.48,6.25.57s4.19.19,6.29.17,4.2,0,6.29-.17,4.18-.32,6.25-.57A42.08,42.08,0,0,0,65.14,23,13.68,13.68,0,0,0,68,21.87,5,5,0,0,0,69.25,21,2.31,2.31,0,0,0,70,19.66Z"/></g><g id="プリン"><path class="cls-1" d="M81.74,72.06a135.19,135.19,0,0,1-36.74,5,148.26,148.26,0,0,1-36.75-5c-.92,0,13.21-51.55,13.21-51.55.66-2.26,3.14-3.86,6-3.86H64.7c2.94,0,5.47,1.69,6,4C70.75,20.67,82.65,72.06,81.74,72.06Z"/><path class="cls-2" d="M19.88,23.8s-.47,14,3.52,14.65c4.6.7,5.4-4.91,8.76-4.91,4.6,0,4.85,4.7,8.51,4.7,4.4,0,5-4.57,8.18-4.56,4.68,0,3.82,4.77,7.62,4.77,3.36,0,2.5-5.09,6.83-5.09,4.65,0,4.6,5.34,7.25,5.34,3.52,0,2.37-8.13.77-16.35-1.78-9.09-27.62-8-27.62-8s-22-.32-23.82,9.5"/><ellipse class="cls-3" cx="46.09" cy="19.66" rx="23.51" ry="6.71"/><path class="cls-4" d="M70,19.66a2.48,2.48,0,0,1-.4,1.59,5.39,5.39,0,0,1-1.12,1.26,13.4,13.4,0,0,1-2.82,1.78,31.48,31.48,0,0,1-6.23,2.09,58.15,58.15,0,0,1-12.94,1.4,57.57,57.57,0,0,1-12.94-1.4,30.84,30.84,0,0,1-6.23-2.09,14.34,14.34,0,0,1-2.82-1.77,5.65,5.65,0,0,1-1.12-1.27,2.55,2.55,0,0,1-.4-1.59A2.33,2.33,0,0,0,23.7,21a5.11,5.11,0,0,0,1.23.88A14.49,14.49,0,0,0,27.8,23a42.08,42.08,0,0,0,6.13,1.22c2.08.25,4.16.48,6.25.57s4.19.19,6.29.17,4.2,0,6.29-.17,4.18-.32,6.25-.57A42.08,42.08,0,0,0,65.14,23,13.68,13.68,0,0,0,68,21.87,5,5,0,0,0,69.25,21,2.31,2.31,0,0,0,70,19.66Z"/></g></svg>