<svg xmlns="http://www.w3.org/2000/svg" viewBox="0 0 90 90"><defs><style>.cls-1,.cls-5{fill:#fff;}.cls-2,.cls-4{fill:none;}.cls-2,.cls-5{stroke:#81666a;stroke-miterlimit:10;stroke-width:2.83px;}.cls-3{fill:#81666a;}.cls-4{stroke:#fff;stroke-width:11.34px;}</style></defs><title>rollcake</title><g id="レイヤー_16" data-name="レイヤー 16"><path class="cls-1" d="M82.9,46.24c0,13-9,28.83-23.31,29.73-3.23.2-25.94-.41-27.65-.61C11.39,73,7.1,61.62,7.1,44.67S23.88,14,44.58,14,82.9,29.3,82.9,46.24Z"/><path class="cls-2" d="M82.9,46.24c0,13-9,28.83-23.31,29.73-3.23.2-25.94-.41-27.65-.61C11.39,73,7.1,61.62,7.1,44.67S23.88,14,44.58,14,82.9,29.3,82.9,46.24Z"/><path class="cls-3" d="M49.28,66s-16.51.64-16.85-8.32S39,44.36,42.17,44.9c4.79.8,7.34,7.66,10,9.7,2.41,1.8,9.05,6.11,9.88,1.4C64.37,43.08,52.32,35.72,45,35.72c-7.62,0-18.47,5.82-20,13.67-1.43,7.26,4.62,17.79,4.62,17.79a26.36,26.36,0,0,1-7.09-17.5c0-19.06,15-20.75,22-20.76,12.13,0,23.8,8.06,22.57,21.28C65.76,64.55,49.28,66,49.28,66"/><path class="cls-3" d="M49.28,66a35.25,35.25,0,0,1-8.68-.71,17.32,17.32,0,0,1-4.15-1.44,8.61,8.61,0,0,1-3.38-2.91,7.41,7.41,0,0,1-1-4.36,14.43,14.43,0,0,1,.71-4.41,12.22,12.22,0,0,1,5.58-6.92,8.09,8.09,0,0,1,2.18-.84,4.81,4.81,0,0,1,2.44.06,8.94,8.94,0,0,1,3.94,2.48,30.28,30.28,0,0,1,2.8,3.46,24.66,24.66,0,0,0,2.62,3.27A15.51,15.51,0,0,0,54,54.84c.59.39,1.19.75,1.81,1.09a10.08,10.08,0,0,0,3.72,1.33c1.23.07,1.63-.48,1.79-1.93a16.63,16.63,0,0,0,.05-4.11,14.84,14.84,0,0,0-3.09-7.45,18.38,18.38,0,0,0-6.37-5.09A15.13,15.13,0,0,0,44.07,37a22.65,22.65,0,0,0-7.9,2.2,22.38,22.38,0,0,0-6.68,4.73,11.11,11.11,0,0,0-3.32,6.89,21.31,21.31,0,0,0,1.29,8,47.09,47.09,0,0,0,3.38,7.69L36,75.93l-7.36-7.74A26.89,26.89,0,0,1,24.26,62a25.62,25.62,0,0,1-2.93-14.59A25.49,25.49,0,0,1,22.9,40a17.81,17.81,0,0,1,4.18-6.39,18.59,18.59,0,0,1,6.45-4,27.49,27.49,0,0,1,7.28-1.58,33.17,33.17,0,0,1,7.38.15,25.25,25.25,0,0,1,13.36,6A18.94,18.94,0,0,1,66,40.13a18.17,18.17,0,0,1,1.7,7.19A19.57,19.57,0,0,1,67.5,51a16.07,16.07,0,0,1-.92,3.56,15.48,15.48,0,0,1-4.12,6,20,20,0,0,1-6.19,3.74,26.39,26.39,0,0,1-7,1.66,26.33,26.33,0,0,0,6.86-2A20.29,20.29,0,0,0,62,60.1a14.58,14.58,0,0,0,3.71-5.85,15.13,15.13,0,0,0,.76-3.39,19.39,19.39,0,0,0,.08-3.49,17.23,17.23,0,0,0-6.06-12A23.6,23.6,0,0,0,48,30.08a31,31,0,0,0-6.94,0,24.71,24.71,0,0,0-6.68,1.61,15.57,15.57,0,0,0-9.12,9.2,22.84,22.84,0,0,0-1.32,6.64,23.29,23.29,0,0,0,.47,6.78A25.74,25.74,0,0,0,30.6,66.17l-2.21,1.71a46.9,46.9,0,0,1-3.58-8.24,24.09,24.09,0,0,1-1.34-9.09,12.55,12.55,0,0,1,1.36-4.65,16.3,16.3,0,0,1,2.78-3.81,26.27,26.27,0,0,1,16.32-7.52,17.45,17.45,0,0,1,9,2.12,20.7,20.7,0,0,1,7,5.83A16.86,16.86,0,0,1,63.22,51a17.91,17.91,0,0,1-.15,4.57,4.28,4.28,0,0,1-1,2.48,2.86,2.86,0,0,1-1.32.79,3.88,3.88,0,0,1-1.38.12A11.46,11.46,0,0,1,55,57.37c-.66-.37-1.29-.77-1.91-1.19a16.4,16.4,0,0,1-1.83-1.39,24,24,0,0,1-2.76-3.56,29.2,29.2,0,0,0-2.61-3.34,7.5,7.5,0,0,0-3.26-2.23,4.89,4.89,0,0,0-3.74.57,11.2,11.2,0,0,0-5.26,6.2,13.39,13.39,0,0,0-.79,4.13,6.62,6.62,0,0,0,.81,4,8.11,8.11,0,0,0,3.06,2.8,18.1,18.1,0,0,0,4,1.54A35,35,0,0,0,49.28,66Z"/><path class="cls-1" d="M38.47,56.84l.44,3.66a.46.46,0,0,0,.58.38,7.42,7.42,0,0,0,2.43-1.12,7.72,7.72,0,0,0,1.35-2.16.45.45,0,0,0-.33-.62L39,56.34A.45.45,0,0,0,38.47,56.84Z"/><path class="cls-1" d="M43.17,54.13l3.36-.36a.4.4,0,0,0,.35-.51,6.53,6.53,0,0,0-1-2.22,7.22,7.22,0,0,0-2-1.26.4.4,0,0,0-.57.3l-.63,3.58A.4.4,0,0,0,43.17,54.13Z"/><path class="cls-1" d="M57,36.34l2.85-.16c.22,0,.36-.13.3-.25a2.92,2.92,0,0,0-.86-1.08,7.24,7.24,0,0,0-1.67-.62c-.2-.06-.44,0-.48.14l-.52,1.74C56.54,36.24,56.73,36.35,57,36.34Z"/><path class="cls-1" d="M50.62,32.94l-1.44-.22a.19.19,0,0,1-.14-.25,3.23,3.23,0,0,1,.45-1.07,3.08,3.08,0,0,1,.86-.59.18.18,0,0,1,.24.16l.23,1.74A.2.2,0,0,1,50.62,32.94Z"/><path class="cls-1" d="M35.83,35.64l0-3.37a.41.41,0,0,0-.48-.4,6.53,6.53,0,0,0-2.3.79,7.22,7.22,0,0,0-1.44,1.82.41.41,0,0,0,.25.6l3.5,1A.4.4,0,0,0,35.83,35.64Z"/><path class="cls-1" d="M45.49,57.07l.64,5.37A.66.66,0,0,0,47,63a10.5,10.5,0,0,0,3.56-1.65,11.33,11.33,0,0,0,2-3.15.66.66,0,0,0-.5-.91l-5.78-.93A.65.65,0,0,0,45.49,57.07Z"/><path class="cls-4" d="M82.9,46.24c0,13-9,28.83-23.31,29.73-3.23.2-25.94-.41-27.65-.61C11.39,73,7.1,61.62,7.1,44.67S23.88,14,44.58,14,82.9,29.3,82.9,46.24Z"/><path class="cls-4" d="M82.9,46.24c0,13-9,28.83-23.31,29.73-3.23.2-25.94-.41-27.65-.61C11.39,73,7.1,61.62,7.1,44.67S23.88,14,44.58,14,82.9,29.3,82.9,46.24Z"/><path class="cls-4" d="M49.28,66s-16.51.64-16.85-8.32S39,44.36,42.17,44.9c4.79.8,7.34,7.66,10,9.7,2.41,1.8,9.05,6.11,9.88,1.4C64.37,43.08,52.32,35.72,45,35.72c-7.62,0-18.47,5.82-20,13.67-1.43,7.26,4.62,17.79,4.62,17.79a26.36,26.36,0,0,1-7.09-17.5c0-19.06,15-20.75,22-20.76,12.13,0,23.8,8.06,22.57,21.28C65.76,64.55,49.28,66,49.28,66"/><path class="cls-4" d="M49.28,66a35.25,35.25,0,0,1-8.68-.71,17.32,17.32,0,0,1-4.15-1.44,8.61,8.61,0,0,1-3.38-2.91,7.41,7.41,0,0,1-1-4.36,14.43,14.43,0,0,1,.71-4.41,12.22,12.22,0,0,1,5.58-6.92,8.09,8.09,0,0,1,2.18-.84,4.81,4.81,0,0,1,2.44.06,8.94,8.94,0,0,1,3.94,2.48,30.28,30.28,0,0,1,2.8,3.46,24.66,24.66,0,0,0,2.62,3.27A15.51,15.51,0,0,0,54,54.84c.59.39,1.19.75,1.81,1.09a10.08,10.08,0,0,0,3.72,1.33c1.23.07,1.63-.48,1.79-1.93a16.63,16.63,0,0,0,.05-4.11,14.84,14.84,0,0,0-3.09-7.45,18.38,18.38,0,0,0-6.37-5.09A15.13,15.13,0,0,0,44.07,37a22.65,22.65,0,0,0-7.9,2.2,22.38,22.38,0,0,0-6.68,4.73,11.11,11.11,0,0,0-3.32,6.89,21.31,21.31,0,0,0,1.29,8,47.09,47.09,0,0,0,3.38,7.69L36,75.93l-7.36-7.74A26.89,26.89,0,0,1,24.26,62a25.62,25.62,0,0,1-2.93-14.59A25.49,25.49,0,0,1,22.9,40a17.81,17.81,0,0,1,4.18-6.39,18.59,18.59,0,0,1,6.45-4,27.49,27.49,0,0,1,7.28-1.58,33.17,33.17,0,0,1,7.38.15,25.25,25.25,0,0,1,13.36,6A18.94,18.94,0,0,1,66,40.13a18.17,18.17,0,0,1,1.7,7.19A19.57,19.57,0,0,1,67.5,51a16.07,16.07,0,0,1-.92,3.56,15.48,15.48,0,0,1-4.12,6,20,20,0,0,1-6.19,3.74,26.39,26.39,0,0,1-7,1.66,26.33,26.33,0,0,0,6.86-2A20.29,20.29,0,0,0,62,60.1a14.58,14.58,0,0,0,3.71-5.85,15.13,15.13,0,0,0,.76-3.39,19.39,19.39,0,0,0,.08-3.49,17.23,17.23,0,0,0-6.06-12A23.6,23.6,0,0,0,48,30.08a31,31,0,0,0-6.94,0,24.71,24.71,0,0,0-6.68,1.61,15.57,15.57,0,0,0-9.12,9.2,22.84,22.84,0,0,0-1.32,6.64,23.29,23.29,0,0,0,.47,6.78A25.74,25.74,0,0,0,30.6,66.17l-2.21,1.71a46.9,46.9,0,0,1-3.58-8.24,24.09,24.09,0,0,1-1.34-9.09,12.55,12.55,0,0,1,1.36-4.65,16.3,16.3,0,0,1,2.78-3.81,26.27,26.27,0,0,1,16.32-7.52,17.45,17.45,0,0,1,9,2.12,20.7,20.7,0,0,1,7,5.83A16.86,16.86,0,0,1,63.22,51a17.91,17.91,0,0,1-.15,4.57,4.28,4.28,0,0,1-1,2.48,2.86,2.86,0,0,1-1.32.79,3.88,3.88,0,0,1-1.38.12A11.46,11.46,0,0,1,55,57.37c-.66-.37-1.29-.77-1.91-1.19a16.4,16.4,0,0,1-1.83-1.39,24,24,0,0,1-2.76-3.56,29.2,29.2,0,0,0-2.61-3.34,7.5,7.5,0,0,0-3.26-2.23,4.89,4.89,0,0,0-3.74.57,11.2,11.2,0,0,0-5.26,6.2,13.39,13.39,0,0,0-.79,4.13,6.62,6.62,0,0,0,.81,4,8.11,8.11,0,0,0,3.06,2.8,18.1,18.1,0,0,0,4,1.54A35,35,0,0,0,49.28,66Z"/><path class="cls-4" d="M38.47,56.84l.44,3.66a.46.46,0,0,0,.58.38,7.42,7.42,0,0,0,2.43-1.12,7.72,7.72,0,0,0,1.35-2.16.45.45,0,0,0-.33-.62L39,56.34A.45.45,0,0,0,38.47,56.84Z"/><path class="cls-4" d="M43.17,54.13l3.36-.36a.4.4,0,0,0,.35-.51,6.53,6.53,0,0,0-1-2.22,7.22,7.22,0,0,0-2-1.26.4.4,0,0,0-.57.3l-.63,3.58A.4.4,0,0,0,43.17,54.13Z"/><path class="cls-4" d="M57,36.34l2.85-.16c.22,0,.36-.13.3-.25a2.92,2.92,0,0,0-.86-1.08,7.24,7.24,0,0,0-1.67-.62c-.2-.06-.44,0-.48.14l-.52,1.74C56.54,36.24,56.73,36.35,57,36.34Z"/><path class="cls-4" d="M50.62,32.94l-1.44-.22a.19.19,0,0,1-.14-.25,3.23,3.23,0,0,1,.45-1.07,3.08,3.08,0,0,1,.86-.59.18.18,0,0,1,.24.16l.23,1.74A.2.2,0,0,1,50.62,32.94Z"/><path class="cls-4" d="M35.83,35.64l0-3.37a.41.41,0,0,0-.48-.4,6.53,6.53,0,0,0-2.3.79,7.22,7.22,0,0,0-1.44,1.82.41.41,0,0,0,.25.6l3.5,1A.4.4,0,0,0,35.83,35.64Z"/><path class="cls-4" d="M45.49,57.07l.64,5.37A.66.66,0,0,0,47,63a10.5,10.5,0,0,0,3.56-1.65,11.33,11.33,0,0,0,2-3.15.66.66,0,0,0-.5-.91l-5.78-.93A.65.65,0,0,0,45.49,57.07Z"/></g><g id="ロールケーキ"><path class="cls-5" d="M82.9,46.24c0,13-9,28.83-23.31,29.73-3.23.2-25.94-.41-27.65-.61C11.39,73,7.1,61.62,7.1,44.67S23.88,14,44.58,14,82.9,29.3,82.9,46.24Z"/><path class="cls-3" d="M49.28,66s-16.51.64-16.85-8.32S39,44.36,42.17,44.9c4.79.8,7.34,7.66,10,9.7,2.41,1.8,9.05,6.11,9.88,1.4C64.37,43.08,52.32,35.72,45,35.72c-7.62,0-18.47,5.82-20,13.67-1.43,7.26,4.62,17.79,4.62,17.79a26.36,26.36,0,0,1-7.09-17.5c0-19.06,15-20.75,22-20.76,12.13,0,23.8,8.06,22.57,21.28C65.76,64.55,49.28,66,49.28,66"/><path class="cls-3" d="M49.28,66a35.25,35.25,0,0,1-8.68-.71,17.32,17.32,0,0,1-4.15-1.44,8.61,8.61,0,0,1-3.38-2.91,7.41,7.41,0,0,1-1-4.36,14.43,14.43,0,0,1,.71-4.41,12.22,12.22,0,0,1,5.58-6.92,8.09,8.09,0,0,1,2.18-.84,4.81,4.81,0,0,1,2.44.06,8.94,8.94,0,0,1,3.94,2.48,30.28,30.28,0,0,1,2.8,3.46,24.66,24.66,0,0,0,2.62,3.27A15.51,15.51,0,0,0,54,54.84c.59.39,1.19.75,1.81,1.09a10.08,10.08,0,0,0,3.72,1.33c1.23.07,1.63-.48,1.79-1.93a16.63,16.63,0,0,0,.05-4.11,14.84,14.84,0,0,0-3.09-7.45,18.38,18.38,0,0,0-6.37-5.09A15.13,15.13,0,0,0,44.07,37a22.65,22.65,0,0,0-7.9,2.2,22.38,22.38,0,0,0-6.68,4.73,11.11,11.11,0,0,0-3.32,6.89,21.31,21.31,0,0,0,1.29,8,47.09,47.09,0,0,0,3.38,7.69L36,75.93l-7.36-7.74A26.89,26.89,0,0,1,24.26,62a25.62,25.62,0,0,1-2.93-14.59A25.49,25.49,0,0,1,22.9,40a17.81,17.81,0,0,1,4.18-6.39,18.59,18.59,0,0,1,6.45-4,27.49,27.49,0,0,1,7.28-1.58,33.17,33.17,0,0,1,7.38.15,25.25,25.25,0,0,1,13.36,6A18.94,18.94,0,0,1,66,40.13a18.17,18.17,0,0,1,1.7,7.19A19.57,19.57,0,0,1,67.5,51a16.07,16.07,0,0,1-.92,3.56,15.48,15.48,0,0,1-4.12,6,20,20,0,0,1-6.19,3.74,26.39,26.39,0,0,1-7,1.66,26.33,26.33,0,0,0,6.86-2A20.29,20.29,0,0,0,62,60.1a14.58,14.58,0,0,0,3.71-5.85,15.13,15.13,0,0,0,.76-3.39,19.39,19.39,0,0,0,.08-3.49,17.23,17.23,0,0,0-6.06-12A23.6,23.6,0,0,0,48,30.08a31,31,0,0,0-6.94,0,24.71,24.71,0,0,0-6.68,1.61,15.57,15.57,0,0,0-9.12,9.2,22.84,22.84,0,0,0-1.32,6.64,23.29,23.29,0,0,0,.47,6.78A25.74,25.74,0,0,0,30.6,66.17l-2.21,1.71a46.9,46.9,0,0,1-3.58-8.24,24.09,24.09,0,0,1-1.34-9.09,12.55,12.55,0,0,1,1.36-4.65,16.3,16.3,0,0,1,2.78-3.81,26.27,26.27,0,0,1,16.32-7.52,17.45,17.45,0,0,1,9,2.12,20.7,20.7,0,0,1,7,5.83A16.86,16.86,0,0,1,63.22,51a17.91,17.91,0,0,1-.15,4.57,4.28,4.28,0,0,1-1,2.48,2.86,2.86,0,0,1-1.32.79,3.88,3.88,0,0,1-1.38.12A11.46,11.46,0,0,1,55,57.37c-.66-.37-1.29-.77-1.91-1.19a16.4,16.4,0,0,1-1.83-1.39,24,24,0,0,1-2.76-3.56,29.2,29.2,0,0,0-2.61-3.34,7.5,7.5,0,0,0-3.26-2.23,4.89,4.89,0,0,0-3.74.57,11.2,11.2,0,0,0-5.26,6.2,13.39,13.39,0,0,0-.79,4.13,6.62,6.62,0,0,0,.81,4,8.11,8.11,0,0,0,3.06,2.8,18.1,18.1,0,0,0,4,1.54A35,35,0,0,0,49.28,66Z"/><path class="cls-1" d="M38.47,56.84l.44,3.66a.46.46,0,0,0,.58.38,7.42,7.42,0,0,0,2.43-1.12,7.72,7.72,0,0,0,1.35-2.16.45.45,0,0,0-.33-.62L39,56.34A.45.45,0,0,0,38.47,56.84Z"/><path class="cls-1" d="M43.17,54.13l3.36-.36a.4.4,0,0,0,.35-.51,6.53,6.53,0,0,0-1-2.22,7.22,7.22,0,0,0-2-1.26.4.4,0,0,0-.57.3l-.63,3.58A.4.4,0,0,0,43.17,54.13Z"/><path class="cls-1" d="M57,36.34l2.85-.16c.22,0,.36-.13.3-.25a2.92,2.92,0,0,0-.86-1.08,7.24,7.24,0,0,0-1.67-.62c-.2-.06-.44,0-.48.14l-.52,1.74C56.54,36.24,56.73,36.35,57,36.34Z"/><path class="cls-1" d="M50.62,32.94l-1.44-.22a.19.19,0,0,1-.14-.25,3.23,3.23,0,0,1,.45-1.07,3.08,3.08,0,0,1,.86-.59.18.18,0,0,1,.24.16l.23,1.74A.2.2,0,0,1,50.62,32.94Z"/><path class="cls-1" d="M35.83,35.64l0-3.37a.41.41,0,0,0-.48-.4,6.53,6.53,0,0,0-2.3.79,7.22,7.22,0,0,0-1.44,1.82.41.41,0,0,0,.25.6l3.5,1A.4.4,0,0,0,35.83,35.64Z"/><path class="cls-1" d="M45.49,57.07l.64,5.37A.66.66,0,0,0,47,63a10.5,10.5,0,0,0,3.56-1.65,11.33,11.33,0,0,0,2-3.15.66.66,0,0,0-.5-.91l-5.78-.93A.65.65,0,0,0,45.49,57.07Z"/></g></svg>