<svg xmlns="http://www.w3.org/2000/svg" viewBox="0 0 90 90"><defs><style>.cls-1,.cls-2{fill:#fff;}.cls-1,.cls-2,.cls-3,.cls-4{stroke:#abeaff;stroke-width:2.83px;}.cls-1,.cls-4,.cls-5{stroke-linecap:round;}.cls-1,.cls-5{stroke-linejoin:round;}.cls-2,.cls-3,.cls-4{stroke-miterlimit:10;}.cls-3,.cls-4,.cls-5{fill:none;}.cls-5{stroke:#fff;stroke-width:11.34px;}</style></defs><title>web用スイーツアイコン制作</title><g id="アイスクリーム"><path class="cls-1" d="M49,48.89c-1.82,0-17.71-2.75-19.87-5.22-2.38-2.7-1.93-9.15,2.74-10.06,3-.57,6.84,1.08,6.84,1.08S30.78,32.42,31.14,30s2-5.31,4.76-5.57c0,0-2.82-1.3-1.83-3,2.19-3.66,9.26-5.92,9.15-8.8S41.51,8.45,38.86,8.8c0,0,4.29-2.06,7.48-.54S56,16.66,57,19.19c1,2.74-.49,4.08-2.74,5.24a11.58,11.58,0,0,1,3.5,1c3,1.63,3.48,4.17,2.91,7-.37,1.83-6.75,4.49-6.75,4.49s3.61-.85,5.56-.36a3.78,3.78,0,0,1,2.65,4.64c0,.1-.06.2-.1.3-.68,2.34-2.83,3.24-5.93,4.49Z"/><polygon class="cls-1" points="28.48 45.83 44.47 82.3 61.51 45.83 28.48 45.83"/><rect class="cls-2" x="28.48" y="45.83" width="33.03" height="10.67"/><line class="cls-3" x1="37.02" y1="65.3" x2="46.01" y2="56.5"/><line class="cls-4" x1="40.49" y1="72.9" x2="54.1" y2="60.55"/><path class="cls-5" d="M49,48.89c-1.82,0-17.71-2.75-19.87-5.22-2.38-2.7-1.93-9.15,2.74-10.06,3-.57,6.84,1.08,6.84,1.08S30.78,32.42,31.14,30s2-5.31,4.76-5.57c0,0-2.82-1.3-1.83-3,2.19-3.66,9.26-5.92,9.15-8.8S41.51,8.45,38.86,8.8c0,0,4.29-2.06,7.48-.54S56,16.66,57,19.19c1,2.74-.49,4.08-2.74,5.24a11.58,11.58,0,0,1,3.5,1c3,1.63,3.48,4.17,2.91,7-.37,1.83-6.75,4.49-6.75,4.49s3.61-.85,5.56-.36a3.78,3.78,0,0,1,2.65,4.64c0,.1-.06.2-.1.3-.68,2.34-2.83,3.24-5.93,4.49Z"/><polygon class="cls-5" points="28.48 45.83 44.47 82.3 61.51 45.83 28.48 45.83"/><rect class="cls-5" x="28.48" y="45.83" width="33.03" height="10.67"/><line class="cls-5" x1="37.02" y1="65.3" x2="46.01" y2="56.5"/><line class="cls-5" x1="40.49" y1="72.9" x2="54.1" y2="60.55"/></g><g id="アイスクリームのコピー"><path class="cls-1" d="M49,48.89c-1.82,0-17.71-2.75-19.87-5.22-2.38-2.7-1.93-9.15,2.74-10.06,3-.57,6.84,1.08,6.84,1.08S30.78,32.42,31.14,30s2-5.31,4.76-5.57c0,0-2.82-1.3-1.83-3,2.19-3.66,9.26-5.92,9.15-8.8S41.51,8.45,38.86,8.8c0,0,4.29-2.06,7.48-.54S56,16.66,57,19.19c1,2.74-.49,4.08-2.74,5.24a11.58,11.58,0,0,1,3.5,1c3,1.63,3.48,4.17,2.91,7-.37,1.83-6.75,4.49-6.75,4.49s3.61-.85,5.56-.36a3.78,3.78,0,0,1,2.65,4.64c0,.1-.06.2-.1.3-.68,2.34-2.83,3.24-5.93,4.49Z"/><polygon class="cls-1" points="28.48 45.83 44.47 82.3 61.51 45.83 28.48 45.83"/><rect class="cls-2" x="28.48" y="45.83" width="33.03" height="10.67"/><line class="cls-3" x1="37.02" y1="65.3" x2="46.01" y2="56.5"/><line class="cls-4" x1="40.49" y1="72.9" x2="54.1" y2="60.55"/></g></svg>