<svg xmlns="http://www.w3.org/2000/svg" viewBox="0 0 90 90"><defs><style>.cls-1,.cls-2{fill:#fff;stroke-width:2.83px;}.cls-1,.cls-2,.cls-3,.cls-5{stroke:#abeaff;}.cls-1,.cls-5,.cls-6{stroke-linecap:round;stroke-linejoin:round;}.cls-2,.cls-3{stroke-miterlimit:10;}.cls-3,.cls-5,.cls-6{fill:none;}.cls-3{stroke-width:2.13px;}.cls-4{fill:#abeaff;}.cls-5{stroke-width:1px;}.cls-6{stroke:#fff;stroke-width:8.5px;}</style></defs><title>sundae</title><g id="サンデー"><ellipse class="cls-1" cx="39.11" cy="36.79" rx="18.35" ry="17.92"/><rect class="cls-2" x="44.67" y="23.51" width="40.72" height="4.24" rx="1.38" transform="translate(14.18 73.59) rotate(-64.84)"/><line class="cls-3" x1="68.36" y1="13.56" x2="73.74" y2="11.65"/><line class="cls-3" x1="66.55" y1="17.43" x2="72.34" y2="15.37"/><line class="cls-3" x1="64.17" y1="22.26" x2="69.92" y2="20.22"/><line class="cls-3" x1="61.97" y1="27.17" x2="67.7" y2="25.14"/><line class="cls-3" x1="59.81" y1="31.77" x2="65.3" y2="29.82"/><line class="cls-3" x1="57.45" y1="36.69" x2="63.07" y2="34.7"/><path class="cls-1" d="M33.94,73.9H26L14.92,41.41c-.35-1,.64-2,2-2H61.77c1.36,0,2.34,1,2,2L52.65,73.9H46.54m-12.6,0v5.84L23.43,83.37H56.31l-9.82-3.89,0-5.58"/><path class="cls-4" d="M29.73,28.11,26.84,34.6a2.73,2.73,0,0,0,2.53,3.81l6.3,0A2.63,2.63,0,0,0,38,34.49L34.57,28A2.69,2.69,0,0,0,29.73,28.11Z"/><path class="cls-4" d="M18,28.11l-2.9,6.49a2.73,2.73,0,0,0,2.54,3.81l6.3,0a2.63,2.63,0,0,0,2.31-3.89L22.88,28A2.69,2.69,0,0,0,18,28.11Z"/><path class="cls-4" d="M41.43,28.11l-2.9,6.49a2.73,2.73,0,0,0,2.54,3.81l6.3,0a2.63,2.63,0,0,0,2.31-3.89L46.27,28A2.69,2.69,0,0,0,41.43,28.11Z"/><path class="cls-4" d="M53.12,28.11,50.23,34.6a2.73,2.73,0,0,0,2.53,3.81l6.3,0a2.63,2.63,0,0,0,2.31-3.89L58,28A2.69,2.69,0,0,0,53.12,28.11Z"/><ellipse class="cls-4" cx="39.11" cy="14.18" rx="4.66" ry="4.27"/><path class="cls-5" d="M39.38,12s-.79-7.23,5.14-6.24"/><ellipse class="cls-6" cx="39.11" cy="36.79" rx="18.35" ry="17.92"/><rect class="cls-6" x="44.67" y="23.51" width="40.72" height="4.24" rx="1.38" transform="translate(14.18 73.59) rotate(-64.84)"/><line class="cls-6" x1="68.36" y1="13.56" x2="73.74" y2="11.65"/><line class="cls-6" x1="66.55" y1="17.43" x2="72.34" y2="15.37"/><line class="cls-6" x1="64.17" y1="22.26" x2="69.92" y2="20.22"/><line class="cls-6" x1="61.97" y1="27.17" x2="67.7" y2="25.14"/><line class="cls-6" x1="59.81" y1="31.77" x2="65.3" y2="29.82"/><line class="cls-6" x1="57.45" y1="36.69" x2="63.07" y2="34.7"/><path class="cls-6" d="M33.94,73.9H26L14.92,41.41c-.35-1,.64-2,2-2H61.77c1.36,0,2.34,1,2,2L52.65,73.9H46.54m-12.6,0v5.84L23.43,83.37H56.31l-9.82-3.89,0-5.58"/><path class="cls-6" d="M29.73,28.11,26.84,34.6a2.73,2.73,0,0,0,2.53,3.81l6.3,0A2.63,2.63,0,0,0,38,34.49L34.57,28A2.69,2.69,0,0,0,29.73,28.11Z"/><path class="cls-6" d="M18,28.11l-2.9,6.49a2.73,2.73,0,0,0,2.54,3.81l6.3,0a2.63,2.63,0,0,0,2.31-3.89L22.88,28A2.69,2.69,0,0,0,18,28.11Z"/><path class="cls-6" d="M41.43,28.11l-2.9,6.49a2.73,2.73,0,0,0,2.54,3.81l6.3,0a2.63,2.63,0,0,0,2.31-3.89L46.27,28A2.69,2.69,0,0,0,41.43,28.11Z"/><path class="cls-6" d="M53.12,28.11,50.23,34.6a2.73,2.73,0,0,0,2.53,3.81l6.3,0a2.63,2.63,0,0,0,2.31-3.89L58,28A2.69,2.69,0,0,0,53.12,28.11Z"/><ellipse class="cls-6" cx="39.11" cy="14.18" rx="4.66" ry="4.27"/><path class="cls-6" d="M39.38,12s-.79-7.23,5.14-6.24"/></g><g id="サンデーのコピー"><ellipse class="cls-1" cx="39.11" cy="36.79" rx="18.35" ry="17.92"/><rect class="cls-2" x="62.92" y="5.27" width="4.24" height="40.72" rx="1.38" transform="translate(17.07 -25.22) rotate(25.16)"/><line class="cls-3" x1="68.36" y1="13.56" x2="73.74" y2="11.65"/><line class="cls-3" x1="66.55" y1="17.43" x2="72.34" y2="15.37"/><line class="cls-3" x1="64.17" y1="22.26" x2="69.92" y2="20.22"/><line class="cls-3" x1="61.97" y1="27.17" x2="67.7" y2="25.14"/><line class="cls-3" x1="59.81" y1="31.77" x2="65.3" y2="29.82"/><line class="cls-3" x1="57.45" y1="36.69" x2="63.07" y2="34.7"/><path class="cls-1" d="M33.94,73.9H26L14.92,41.41c-.35-1,.64-2,2-2H61.77c1.36,0,2.34,1,2,2L52.65,73.9H46.54m-12.6,0v5.84L23.43,83.37H56.31l-9.82-3.89,0-5.58"/><path class="cls-4" d="M29.73,28.11,26.84,34.6a2.73,2.73,0,0,0,2.53,3.81l6.3,0A2.63,2.63,0,0,0,38,34.49L34.57,28A2.69,2.69,0,0,0,29.73,28.11Z"/><path class="cls-4" d="M18,28.11l-2.9,6.49a2.73,2.73,0,0,0,2.54,3.81l6.3,0a2.63,2.63,0,0,0,2.31-3.89L22.88,28A2.69,2.69,0,0,0,18,28.11Z"/><path class="cls-4" d="M41.43,28.11l-2.9,6.49a2.73,2.73,0,0,0,2.54,3.81l6.3,0a2.63,2.63,0,0,0,2.31-3.89L46.27,28A2.69,2.69,0,0,0,41.43,28.11Z"/><path class="cls-4" d="M53.12,28.11,50.23,34.6a2.73,2.73,0,0,0,2.53,3.81l6.3,0a2.63,2.63,0,0,0,2.31-3.89L58,28A2.69,2.69,0,0,0,53.12,28.11Z"/><ellipse class="cls-4" cx="39.11" cy="14.18" rx="4.66" ry="4.27"/><path class="cls-5" d="M39.38,12s-.79-7.23,5.14-6.24"/></g></svg>