<?xml version="1.0" encoding="utf-8"?>
<!-- Generator: Adobe Illustrator 18.1.1, SVG Export Plug-In . SVG Version: 6.00 Build 0)  -->
<svg version="1.1" id="レイヤー_1" xmlns="http://www.w3.org/2000/svg" xmlns:xlink="http://www.w3.org/1999/xlink" x="0px"
	 y="0px" width="170px" height="50px" viewBox="0 0 170 50" enable-background="new 0 0 170 50" xml:space="preserve">
<g>
	<g>
		<path fill="#040000" d="M75.5,40.9h-1.7v-1.8h1.7v-1.3c0-0.5,0.1-1,0.2-1.5c0.1-0.5,0.3-0.9,0.6-1.3c0.3-0.4,0.6-0.7,1.1-0.9
			c0.5-0.2,1-0.3,1.7-0.3c0.2,0,0.5,0,0.6,0c0.2,0,0.3,0.1,0.5,0.1l-0.1,1.9c-0.1,0-0.3-0.1-0.4-0.1c-0.1,0-0.3,0-0.5,0
			c-0.3,0-0.6,0.1-0.8,0.2c-0.2,0.1-0.3,0.3-0.5,0.5c-0.1,0.2-0.2,0.4-0.2,0.6c0,0.2-0.1,0.5-0.1,0.7v1.4h2v1.8h-2V48h-2.2V40.9z"/>
		<path fill="#040000" d="M81.6,43.5c0-0.7,0.1-1.3,0.4-1.9c0.3-0.6,0.6-1.1,1-1.5c0.4-0.4,0.9-0.7,1.5-0.9c0.6-0.2,1.2-0.3,1.9-0.3
			c0.7,0,1.3,0.1,1.9,0.3c0.6,0.2,1.1,0.5,1.5,0.9c0.4,0.4,0.8,0.9,1,1.5c0.3,0.6,0.4,1.2,0.4,1.9c0,0.7-0.1,1.3-0.4,1.9
			c-0.3,0.6-0.6,1.1-1,1.5c-0.4,0.4-0.9,0.7-1.5,1c-0.6,0.2-1.2,0.4-1.9,0.4c-0.7,0-1.3-0.1-1.9-0.4c-0.6-0.2-1.1-0.6-1.5-1
			c-0.4-0.4-0.8-0.9-1-1.5C81.7,44.9,81.6,44.2,81.6,43.5z M83.8,43.5c0,0.3,0.1,0.7,0.2,1c0.1,0.3,0.3,0.7,0.5,0.9
			c0.2,0.3,0.5,0.5,0.8,0.7c0.3,0.2,0.7,0.3,1.1,0.3c0.4,0,0.8-0.1,1.1-0.3c0.3-0.2,0.6-0.4,0.8-0.7c0.2-0.3,0.4-0.6,0.5-0.9
			c0.1-0.3,0.2-0.7,0.2-1c0-0.3-0.1-0.7-0.2-1c-0.1-0.3-0.3-0.6-0.5-0.9c-0.2-0.3-0.5-0.5-0.8-0.7c-0.3-0.2-0.7-0.2-1.1-0.2
			c-0.4,0-0.8,0.1-1.1,0.2c-0.3,0.2-0.6,0.4-0.8,0.7c-0.2,0.3-0.4,0.6-0.5,0.9C83.9,42.8,83.8,43.2,83.8,43.5z"/>
		<path fill="#040000" d="M94.2,39.1h2.1v1.5h0c0.2-0.5,0.6-0.9,1-1.3c0.4-0.3,1-0.5,1.5-0.5c0.1,0,0.2,0,0.3,0c0.1,0,0.2,0,0.3,0v2
			c-0.1,0-0.3-0.1-0.4-0.1c-0.1,0-0.2,0-0.3,0c-0.5,0-0.9,0.1-1.2,0.3c-0.3,0.2-0.5,0.4-0.7,0.7c-0.2,0.3-0.3,0.5-0.4,0.8
			c-0.1,0.3-0.1,0.5-0.1,0.6V48h-2.2V39.1z"/>
		<path fill="#040000" d="M113.9,43.8c0,0.5-0.1,1-0.2,1.5c-0.1,0.5-0.3,1-0.6,1.5c-0.3,0.5-0.7,0.8-1.2,1.1c-0.5,0.3-1.2,0.4-2,0.4
			c-1.1,0-1.9-0.3-2.5-0.8c-0.6-0.5-1.1-1.2-1.3-2.1l2.1-0.6c0.1,0.4,0.3,0.8,0.6,1c0.3,0.3,0.6,0.4,1.1,0.4c0.3,0,0.6-0.1,0.8-0.2
			c0.2-0.1,0.4-0.3,0.5-0.5c0.1-0.2,0.2-0.5,0.3-0.8c0-0.3,0.1-0.7,0.1-1v-8.8h2.3V43.8z"/>
		<path fill="#040000" d="M121.7,34.9h2l5.6,13.1h-2.7l-1.2-3h-5.7l-1.2,3H116L121.7,34.9z M124.7,43l-2-5.3l-2,5.3H124.7z"/>
		<path fill="#040000" d="M131.6,34.9h4.3c0.8,0,1.4,0.1,2,0.2c0.6,0.1,1.1,0.4,1.5,0.7c0.4,0.3,0.8,0.7,1,1.2
			c0.2,0.5,0.3,1.1,0.3,1.7c0,0.7-0.1,1.3-0.4,1.8c-0.3,0.5-0.6,0.9-1.1,1.2c-0.5,0.3-1,0.5-1.6,0.7c-0.6,0.1-1.3,0.2-2,0.2h-1.8V48
			h-2.3V34.9z M135.5,40.6c0.4,0,0.7,0,1.1-0.1c0.3-0.1,0.7-0.2,0.9-0.3c0.3-0.1,0.5-0.3,0.6-0.6c0.2-0.2,0.2-0.6,0.2-1
			c0-0.4-0.1-0.7-0.2-0.9c-0.2-0.2-0.4-0.4-0.6-0.6c-0.3-0.1-0.6-0.2-0.9-0.3c-0.3,0-0.7-0.1-1-0.1h-1.7v3.7H135.5z"/>
		<path fill="#040000" d="M146.4,34.9h2L154,48h-2.7l-1.2-3h-5.7l-1.2,3h-2.6L146.4,34.9z M149.3,43l-2-5.3l-2,5.3H149.3z"/>
		<path fill="#040000" d="M156.2,34.9h3.1l6.1,9.8h0v-9.8h2.3V48h-3l-6.2-10.1h0V48h-2.3V34.9z"/>
	</g>
	<g>
		<path fill="#040000" d="M94.8,21.4c-0.4,0.6-0.9,1.2-1.5,1.7c-0.6,0.5-1.2,1-2,1.4c-0.8,0.4-1.6,0.7-2.5,1c-0.9,0.2-1.9,0.4-3,0.4
			c-1.8,0-3.5-0.3-5-0.9c-1.5-0.6-2.8-1.5-3.9-2.6c-1.1-1.1-2-2.4-2.6-4c-0.6-1.5-0.9-3.2-0.9-5c0-1.8,0.3-3.5,0.9-5
			c0.6-1.5,1.5-2.8,2.6-4c1.1-1.1,2.4-2,3.9-2.6c1.5-0.6,3.2-0.9,4.9-0.9c0.9,0,1.7,0.1,2.6,0.3c0.8,0.2,1.6,0.4,2.4,0.8
			c0.7,0.3,1.4,0.7,2,1.2c0.6,0.5,1.1,1,1.5,1.6l-2,1.5c-0.2-0.4-0.6-0.8-1-1.1c-0.4-0.4-0.9-0.7-1.5-1c-0.6-0.3-1.2-0.5-1.8-0.7
			C87.4,3.1,86.7,3,86,3c-1.5,0-2.9,0.3-4.2,0.8c-1.2,0.6-2.3,1.3-3.1,2.3c-0.9,0.9-1.5,2.1-2,3.3c-0.4,1.3-0.7,2.6-0.7,4
			c0,1.4,0.2,2.7,0.7,4c0.5,1.3,1.1,2.4,2,3.3c0.9,1,1.9,1.7,3.1,2.3c1.2,0.6,2.6,0.8,4.1,0.8c1.4,0,2.7-0.3,3.9-0.8
			s2.3-1.5,3.1-2.7L94.8,21.4z"/>
		<path fill="#040000" d="M122.6,13.3c0,1.8-0.3,3.5-0.9,5c-0.6,1.5-1.5,2.8-2.6,4c-1.1,1.1-2.4,2-3.9,2.6c-1.5,0.6-3.2,0.9-4.9,0.9
			c-1.8,0-3.4-0.3-4.9-0.9c-1.5-0.6-2.8-1.5-3.9-2.6c-1.1-1.1-2-2.4-2.6-4c-0.6-1.5-0.9-3.2-0.9-5c0-1.8,0.3-3.5,0.9-5
			c0.6-1.5,1.5-2.8,2.6-4c1.1-1.1,2.4-2,3.9-2.6c1.5-0.6,3.2-0.9,4.9-0.9c1.8,0,3.4,0.3,4.9,0.9c1.5,0.6,2.8,1.5,3.9,2.6
			c1.1,1.1,2,2.4,2.6,4C122.2,9.9,122.6,11.5,122.6,13.3z M120,13.4c0-1.4-0.2-2.7-0.7-4c-0.4-1.3-1.1-2.4-2-3.3
			c-0.9-1-1.9-1.7-3.1-2.3C113,3.3,111.7,3,110.1,3c-1.5,0-2.9,0.3-4.1,0.8c-1.2,0.6-2.3,1.3-3.1,2.3c-0.9,1-1.5,2.1-1.9,3.3
			c-0.4,1.3-0.7,2.6-0.7,4s0.2,2.7,0.7,4c0.4,1.3,1.1,2.3,1.9,3.3c0.9,0.9,1.9,1.7,3.1,2.2c1.2,0.6,2.6,0.8,4.1,0.8
			c1.5,0,2.9-0.3,4.1-0.8c1.2-0.6,2.3-1.3,3.1-2.2c0.9-0.9,1.5-2,2-3.3C119.8,16.1,120,14.8,120,13.4z"/>
		<path fill="#040000" d="M127.6,1.4h7.9c1.5,0,3,0.2,4.5,0.7c1.5,0.5,2.8,1.2,4,2.2c1.2,1,2.2,2.2,2.9,3.7s1.1,3.2,1.1,5.2
			c0,2-0.4,3.7-1.1,5.2c-0.7,1.5-1.7,2.7-2.9,3.7c-1.2,1-2.5,1.7-4,2.2c-1.5,0.5-3,0.7-4.5,0.7h-7.9V1.4z M130,23.1h4.8
			c1.8,0,3.4-0.3,4.7-0.8c1.3-0.6,2.4-1.3,3.3-2.2c0.9-0.9,1.5-1.9,2-3.1c0.4-1.2,0.7-2.4,0.7-3.6c0-1.2-0.2-2.4-0.7-3.6
			c-0.4-1.2-1.1-2.2-2-3.1c-0.9-0.9-2-1.6-3.3-2.2c-1.3-0.6-2.9-0.8-4.7-0.8H130V23.1z"/>
		<path fill="#040000" d="M155.5,23.1h12.7v2.2h-15.2V1.4h14.8v2.2h-12.3v8.2H167v2.2h-11.5V23.1z"/>
	</g>
	<path fill="#AC1C3D" d="M49.8,15.1c-1.3-3-3.1-5.7-5.4-7.9c-2.3-2.3-5-4.1-7.9-5.4c-3-1.3-6.3-2-9.7-2c-3.4,0-6.7,0.7-9.7,2
		c-3,1.3-5.7,3.1-7.9,5.4c-2.3,2.3-4.1,5-5.4,7.9c-1.3,3-2,6.3-2,9.7c0,3.5,0.7,6.7,2,9.7c1.3,3,3.1,5.7,5.4,7.9
		c2.3,2.3,5,4.1,7.9,5.4c3,1.3,6.3,2,9.7,2c3.5,0,6.7-0.7,9.7-2c3-1.3,5.7-3.1,7.9-5.4c2.3-2.3,4.1-4.9,5.4-7.9c1.3-3,2-6.3,2-9.7
		C51.8,21.4,51.1,18.1,49.8,15.1z M21.3,12.2h-1.7c-0.9,0-1.7,0.3-2.1,0.8c-0.5,0.5-0.7,1.7-0.7,3.6v1.9v13.2v1.8
		c0,1.8,0.2,3,0.7,3.6c0.5,0.5,1.2,0.8,2.1,0.8h1.7v2h-3.2c-1.5,0-2.7-0.4-3.5-1.3c-0.8-0.9-1.3-2.6-1.3-5.1v-2.1
		c0-1.5-0.3-2.8-1-3.7c-0.7-0.9-1.7-1.4-3-1.4v-2.3c1.3,0,2.3-0.5,3-1.4c0.7-0.9,1-2.2,1-3.7v-2.3c0-2.4,0.4-4.1,1.3-5
		c0.8-0.9,2-1.4,3.5-1.4h3.2V12.2z M40.8,33.4c0,2.5-0.4,4.2-1.3,5.1c-0.8,0.9-2,1.3-3.5,1.3h-3.2v-2h1.7c0.9,0,1.7-0.3,2.1-0.8
		c0.5-0.5,0.7-1.7,0.7-3.6V10.2h3.4V33.4z"/>
</g>
</svg>
